<svg width="36" height="36" viewBox="0 0 36 36" fill="none" xmlns="http://www.w3.org/2000/svg">
<path d="M10.4515 8.89324V9.64324C10.7022 9.64324 10.9364 9.51791 11.0755 9.30926L10.4515 8.89324ZM12.5252 5.78258L11.9012 5.36655V5.36655L12.5252 5.78258ZM23.1243 5.78258L23.7484 5.36655L23.1243 5.78258ZM25.1981 8.89324L24.5741 9.30926C24.7132 9.51791 24.9474 9.64324 25.1981 9.64324V8.89324ZM21.4988 19.9532C21.4988 21.9823 19.8539 23.6272 17.8248 23.6272V25.1272C20.6823 25.1272 22.9988 22.8108 22.9988 19.9532H21.4988ZM17.8248 23.6272C15.7957 23.6272 14.1508 21.9823 14.1508 19.9532H12.6508C12.6508 22.8108 14.9673 25.1272 17.8248 25.1272V23.6272ZM14.1508 19.9532C14.1508 17.9241 15.7957 16.2792 17.8248 16.2792V14.7792C14.9673 14.7792 12.6508 17.0957 12.6508 19.9532H14.1508ZM17.8248 16.2792C19.8539 16.2792 21.4988 17.9241 21.4988 19.9532H22.9988C22.9988 17.0957 20.6823 14.7792 17.8248 14.7792V16.2792ZM11.0755 9.30926L13.1493 6.1986L11.9012 5.36655L9.82742 8.47721L11.0755 9.30926ZM14.9792 5.21924H20.6704V3.71924H14.9792V5.21924ZM22.5003 6.1986L24.5741 9.30926L25.8222 8.47721L23.7484 5.36655L22.5003 6.1986ZM20.6704 5.21924C21.4057 5.21924 22.0924 5.58675 22.5003 6.1986L23.7484 5.36655C23.0623 4.3374 21.9072 3.71924 20.6704 3.71924V5.21924ZM13.1493 6.1986C13.5572 5.58675 14.2439 5.21924 14.9792 5.21924V3.71924C13.7423 3.71924 12.5873 4.3374 11.9012 5.36655L13.1493 6.1986ZM31.8215 14.7919V25.1146H33.3215V14.7919H31.8215ZM26.6728 30.2632H8.97679V31.7632H26.6728V30.2632ZM3.82812 25.1146V14.7919H2.32812V25.1146H3.82812ZM8.97679 30.2632C6.13326 30.2632 3.82812 27.9581 3.82812 25.1146H2.32812C2.32812 28.7865 5.30483 31.7632 8.97679 31.7632V30.2632ZM31.8215 25.1146C31.8215 27.9581 29.5163 30.2632 26.6728 30.2632V31.7632C30.3447 31.7632 33.3215 28.7865 33.3215 25.1146H31.8215ZM26.6728 9.64324C29.5163 9.64324 31.8215 11.9484 31.8215 14.7919H33.3215C33.3215 11.1199 30.3447 8.14324 26.6728 8.14324V9.64324ZM8.97679 8.14324C5.30483 8.14324 2.32812 11.1199 2.32812 14.7919H3.82812C3.82812 11.9484 6.13326 9.64324 8.97679 9.64324V8.14324ZM8.97679 9.64324H10.4515V8.14324H8.97679V9.64324ZM26.6728 8.14324H25.1981V9.64324H26.6728V8.14324Z" fill="#000E08" fill-opacity="0.5"/>
<circle cx="17.8253" cy="8.89325" r="1.47467" fill="#000E08" fill-opacity="0.5"/>
</svg>
