<svg width="12" height="13" viewBox="0 0 12 13" fill="none" xmlns="http://www.w3.org/2000/svg">
<path d="M6.032 9.49998C5.89965 9.50074 5.76847 9.47554 5.64595 9.4258C5.52343 9.37607 5.412 9.3028 5.31804 9.21018L1.29573 5.21292C1.10638 5.02474 1 4.76952 1 4.5034C1 4.23728 1.10638 3.98206 1.29573 3.79389C1.48509 3.60572 1.7419 3.5 2.00969 3.5C2.27748 3.5 2.5343 3.60572 2.72365 3.79389L6.032 7.09163L9.34034 3.80388C9.53271 3.64017 9.78016 3.55462 10.0332 3.56434C10.2863 3.57405 10.5264 3.67831 10.7055 3.85628C10.8846 4.03426 10.9895 4.27283 10.9992 4.52434C11.009 4.77584 10.9229 5.02175 10.7582 5.21292L6.7359 9.21018C6.5486 9.3948 6.2958 9.49888 6.032 9.49998Z" fill="#555555"/>
</svg>
