<svg width="24" height="24" viewBox="0 0 24 24" fill="none" xmlns="http://www.w3.org/2000/svg">
<path d="M15.7298 3.87519L15.7298 3.87519V3.88V4.82C15.7298 5.58386 15.1136 6.2 14.3498 6.2H9.63977C8.87591 6.2 8.25977 5.58386 8.25977 4.82V3.88C8.25977 3.11959 8.88245 2.5 9.64977 2.5H14.3498C15.1181 2.5 15.7371 3.11947 15.7298 3.87519Z" stroke="#FF5400"/>
<path d="M14.35 8.21001C16.2162 8.21001 17.74 6.68615 17.74 4.82001C17.74 4.65347 17.9252 4.51922 18.1077 4.61278C19.3589 5.27946 20.21 6.6023 20.21 8.12001V17.53C20.21 19.7139 18.4239 21.5 16.24 21.5H7.76004C5.57618 21.5 3.79004 19.7139 3.79004 17.53V8.12001C3.79004 6.60229 4.64117 5.27945 5.89236 4.61277C6.0749 4.51923 6.26004 4.65348 6.26004 4.82001C6.26004 6.68615 7.7839 8.21001 9.65004 8.21001H14.35ZM11.6936 17.0836L15.6936 13.0836C16.1789 12.5983 16.1789 11.8017 15.6936 11.3165C15.2083 10.8312 14.4117 10.8312 13.9265 11.3165L10.81 14.4329L10.1936 13.8165C9.70833 13.3312 8.91175 13.3312 8.42649 13.8165C7.94122 14.3017 7.94122 15.0983 8.42649 15.5836L9.92649 17.0836C10.1752 17.3323 10.4946 17.45 10.81 17.45C11.1255 17.45 11.4449 17.3323 11.6936 17.0836Z" stroke="#FF5400"/>
</svg>
