<svg width="33" height="33" viewBox="0 0 33 33" fill="none" xmlns="http://www.w3.org/2000/svg">
<path opacity="0.2" d="M4.6375 9.82501C4.54693 9.98058 4.49946 10.1575 4.5 10.3375V22.6625C4.50096 22.8405 4.54884 23.0152 4.63882 23.1688C4.7288 23.3224 4.85769 23.4496 5.0125 23.5375L16.0125 29.725C16.1608 29.8097 16.3292 29.8529 16.5 29.85V29.85L16.6125 16.5L4.6375 9.82501Z" fill="#2DB324"/>
<path d="M28.5 22.6625V10.3375C28.499 10.1595 28.4512 9.98484 28.3612 9.83122C28.2712 9.6776 28.1423 9.55042 27.9875 9.4625L16.9875 3.275C16.8393 3.18943 16.6711 3.14438 16.5 3.14438C16.3289 3.14438 16.1607 3.18943 16.0125 3.275L5.0125 9.4625C4.85769 9.55042 4.72879 9.6776 4.63882 9.83122C4.54884 9.98484 4.50096 10.1595 4.5 10.3375V22.6625C4.50096 22.8405 4.54884 23.0152 4.63882 23.1688C4.72879 23.3224 4.85769 23.4496 5.0125 23.5375L16.0125 29.725C16.1607 29.8106 16.3289 29.8556 16.5 29.8556C16.6711 29.8556 16.8393 29.8106 16.9875 29.725L27.9875 23.5375C28.1423 23.4496 28.2712 23.3224 28.3612 23.1688C28.4512 23.0152 28.499 22.8405 28.5 22.6625V22.6625Z" stroke="#2DB324" stroke-width="2" stroke-linecap="round" stroke-linejoin="round"/>
<path d="M28.3624 9.82501L16.6125 16.5L4.63745 9.82501" stroke="#2DB324" stroke-width="2" stroke-linecap="round" stroke-linejoin="round"/>
<path d="M16.6125 16.5L16.5 29.85" stroke="#2DB324" stroke-width="2" stroke-linecap="round" stroke-linejoin="round"/>
</svg>
