<svg width="36" height="36" viewBox="0 0 36 36" fill="none" xmlns="http://www.w3.org/2000/svg">
<path d="M10.6682 26.5893L10.6682 14.792C10.6682 11.5342 13.3091 8.8933 16.5669 8.8933L25.4149 8.8933M10.6682 26.5893C10.6682 29.847 13.3091 32.488 16.5669 32.488H20.0222C21.5866 32.488 23.087 31.8665 24.1932 30.7603L29.5858 25.3676C30.6921 24.2614 31.3135 22.7611 31.3135 21.1967V14.792C31.3135 11.5342 28.6726 8.8933 25.4149 8.8933M10.6682 26.5893C7.41045 26.5893 4.76953 23.9484 4.76953 20.6906L4.76953 8.89329C4.76953 5.63555 7.41046 2.99463 10.6682 2.99463L19.5162 2.99463C22.7739 2.99463 25.4149 5.63555 25.4149 8.8933M22.4655 32.488V29.5386C22.4655 26.2809 25.1065 23.64 28.3642 23.64H31.3135" stroke="#797C7B" stroke-opacity="0.5" stroke-width="1.5" stroke-linejoin="round"/>
</svg>
