<svg width="72" height="73" viewBox="0 0 72 73" fill="none" xmlns="http://www.w3.org/2000/svg">
<path fill-rule="evenodd" clip-rule="evenodd" d="M44.6635 47.4782C40.4953 50.5603 34.4323 52.2024 29.2031 52.2024C21.877 52.2024 15.3089 49.4992 10.3069 45.0024C9.928 44.6487 10.2564 44.1687 10.7364 44.4466C16.1172 47.5793 22.7612 49.4487 29.6325 49.4487C34.2555 49.4487 39.3585 48.4887 44.0572 46.4929C44.7646 46.215 45.3456 46.9729 44.6635 47.4782Z" fill="white"/>
<path fill-rule="evenodd" clip-rule="evenodd" d="M46.4064 45.4825C45.8759 44.8004 42.8697 45.1541 41.5308 45.3309C41.1266 45.3815 41.0508 45.0278 41.4297 44.7752C43.8296 43.0826 47.7453 43.5879 48.2 44.1436C48.6547 44.6994 48.0737 48.6403 45.8253 50.5097C45.4717 50.7876 45.1433 50.636 45.2948 50.257C45.8001 48.9939 46.9369 46.1898 46.4064 45.4825Z" fill="white"/>
<path fill-rule="evenodd" clip-rule="evenodd" d="M41.6066 32.9021V31.2601C41.6066 31.0074 41.7835 30.8559 42.0108 30.8559H49.3368C49.5642 30.8559 49.7663 31.0327 49.7663 31.2601V32.6495C49.7663 32.8769 49.5642 33.18 49.2105 33.6853L45.4212 39.0914C46.8359 39.0661 48.3263 39.2682 49.5894 39.9756C49.8673 40.1271 49.9431 40.3798 49.9684 40.6071V42.3502C49.9684 42.6028 49.7158 42.8807 49.4379 42.7292C47.1896 41.5418 44.1834 41.4155 41.7077 42.7544C41.4551 42.8807 41.1772 42.6281 41.1772 42.3755V40.7082C41.1772 40.4556 41.1772 40.0008 41.4551 39.5966L45.8507 33.3063H42.0361C41.8087 33.3063 41.6066 33.1295 41.6066 32.9021ZM14.9046 43.0828H12.6816C12.4795 43.0576 12.3026 42.906 12.2774 42.7039V31.2853C12.2774 31.058 12.4795 30.8811 12.7068 30.8811H14.7783C15.0057 30.8811 15.1572 31.058 15.1825 31.2601V32.7505H15.233C15.7635 31.3106 16.7993 30.6285 18.1634 30.6285C19.5528 30.6285 20.437 31.3106 21.0433 32.7505C21.5738 31.3106 22.8117 30.6285 24.1253 30.6285C25.06 30.6285 26.0705 31.0074 26.702 31.8916C27.4094 32.8516 27.2578 34.241 27.2578 35.4789V42.7039C27.2578 42.9313 27.0557 43.1081 26.8283 43.1081H24.6305C24.4032 43.0828 24.2263 42.906 24.2263 42.7039V36.6409C24.2263 36.161 24.2769 34.9484 24.1758 34.4936C23.999 33.7358 23.519 33.5084 22.8622 33.5084C22.3317 33.5084 21.7506 33.8621 21.5233 34.4431C21.2959 35.0242 21.3212 35.9841 21.3212 36.6409V42.7039C21.3212 42.9313 21.1191 43.1081 20.8917 43.1081H18.6687C18.4413 43.0828 18.2645 42.906 18.2645 42.7039V36.6409C18.2645 35.3778 18.4666 33.4832 16.9003 33.4832C15.3088 33.4832 15.3593 35.302 15.3593 36.6409V42.7039C15.3341 42.906 15.1572 43.0828 14.9046 43.0828ZM56.0818 30.6285C59.3911 30.6285 61.1847 33.4579 61.1847 37.0704C61.1847 40.5566 59.2143 43.3355 56.0818 43.3355C52.8483 43.3355 51.0799 40.5061 51.0799 36.9694C51.0547 33.4074 52.8483 30.6285 56.0818 30.6285ZM56.0818 32.9779C54.4398 32.9779 54.3387 35.2263 54.3387 36.6157C54.3387 38.0051 54.3135 40.9861 56.0565 40.9861C57.7744 40.9861 57.8754 38.5861 57.8754 37.1209C57.8754 36.161 57.8249 34.9989 57.547 34.0895C57.2944 33.2811 56.7891 32.9779 56.0818 32.9779ZM65.454 43.0828H63.231C63.0036 43.0576 62.8268 42.8807 62.8268 42.6786V31.2348C62.852 31.0327 63.0289 30.8559 63.2562 30.8559H65.3277C65.5298 30.8559 65.6814 31.0075 65.7319 31.1843V32.9274H65.7824C66.414 31.3611 67.2729 30.6285 68.8139 30.6285C69.7991 30.6285 70.7843 30.9822 71.4159 31.9674C71.9969 32.8769 71.9969 34.4179 71.9969 35.5294V42.7292C71.9716 42.9313 71.7948 43.0828 71.5675 43.0828H69.3444C69.1423 43.0576 68.9655 42.906 68.9402 42.7292V36.5146C68.9402 35.2515 69.0918 33.4326 67.5508 33.4326C67.0203 33.4326 66.515 33.7863 66.2624 34.3421C65.9593 35.0494 65.9087 35.7315 65.9087 36.5146V42.6786C65.8835 42.906 65.6814 43.0828 65.454 43.0828ZM35.7711 37.6262C35.7711 38.4851 35.7964 39.2177 35.3669 40.0008C35.0132 40.6324 34.4575 41.0113 33.8259 41.0113C32.967 41.0113 32.4618 40.3545 32.4618 39.3945C32.4618 37.4999 34.1543 37.1462 35.7711 37.1462V37.6262ZM38.0194 43.0576C37.8678 43.1839 37.6657 43.2091 37.4889 43.1081C36.7563 42.5018 36.6047 42.1987 36.2005 41.6176C34.988 42.8555 34.1038 43.2344 32.5375 43.2344C30.6682 43.2344 29.203 42.0723 29.203 39.7735C29.203 37.9546 30.1882 36.742 31.5776 36.1357C32.7902 35.6052 34.4827 35.5041 35.7711 35.3526V35.0747C35.7711 34.5442 35.8216 33.9126 35.4932 33.4579C35.2153 33.0537 34.7101 32.8769 34.2554 32.8769C33.3965 32.8769 32.6386 33.3063 32.4618 34.2158C32.4112 34.4179 32.2849 34.62 32.0828 34.62L29.9356 34.3926C29.7587 34.3421 29.5566 34.2158 29.6072 33.9379C30.1124 31.3106 32.4618 30.5275 34.5838 30.5275C35.67 30.5275 37.0847 30.8053 37.9436 31.639C39.0299 32.6495 38.9289 34.0137 38.9289 35.4789V38.9398C38.9289 39.9756 39.3583 40.4303 39.7625 41.0113C39.9141 41.2134 39.9393 41.466 39.7625 41.5924C39.2825 41.9713 38.4741 42.6786 38.0194 43.0576ZM6.5934 37.6262C6.5934 38.4851 6.61866 39.2177 6.18921 40.0008C5.83554 40.6324 5.27977 41.0113 4.64822 41.0113C3.78931 41.0113 3.28407 40.3545 3.28407 39.3945C3.28407 37.4999 4.97663 37.1462 6.5934 37.1462V37.6262ZM8.81646 43.0576C8.66489 43.1839 8.4628 43.2091 8.28596 43.1081C7.55336 42.5018 7.40179 42.1987 6.99759 41.6176C5.78501 42.8555 4.90084 43.2344 3.33459 43.2344C1.4652 43.2344 0 42.0723 0 39.7735C0 37.9546 0.985219 36.742 2.37463 36.1357C3.58721 35.6052 5.27977 35.5041 6.56814 35.3526V35.0747C6.56814 34.5442 6.61866 33.9126 6.29025 33.4579C6.01237 33.0537 5.50713 32.8769 5.05241 32.8769C4.1935 32.8769 3.43564 33.3063 3.25881 34.2158C3.20828 34.4179 3.08197 34.62 2.87987 34.62L0.732599 34.3926C0.555764 34.3421 0.353671 34.2158 0.404195 33.9379C0.909436 31.3106 3.25881 30.5275 5.38082 30.5275C6.46709 30.5275 7.88177 30.8053 8.74068 31.639C9.82695 32.6495 9.7259 34.0137 9.7259 35.4789V38.9398C9.7259 39.9756 10.1554 40.4303 10.5595 41.0113C10.7111 41.2134 10.7364 41.466 10.5595 41.5924C10.0796 41.9713 9.27118 42.6786 8.81646 43.0576Z" fill="white"/>
</svg>
