<svg width="72" height="73" viewBox="0 0 72 73" fill="none" xmlns="http://www.w3.org/2000/svg">
<g clip-path="url(#clip0_99_7125)">
<path d="M8.86722 24.7629H9.50749C11.7303 24.8112 13.9169 25.7043 15.4874 27.2854C14.9075 27.8767 14.3155 28.444 13.7478 29.0353C12.8659 28.2388 11.8028 27.6233 10.6431 27.406C8.92763 27.044 7.0793 27.3698 5.64172 28.3474C4.07125 29.3733 3.00816 31.1112 2.77863 32.9698C2.52494 34.8043 3.0444 36.7353 4.24038 38.1595C5.38803 39.5474 7.13971 40.4164 8.95179 40.4767C10.6431 40.5733 12.4068 40.0543 13.639 38.8715C14.6055 38.0388 15.0525 36.7715 15.1974 35.5405C13.1921 35.5405 11.1867 35.5526 9.18132 35.5405V33.0543H17.6256C18.0605 35.7215 17.4323 38.7267 15.4028 40.6336C14.0498 41.9853 12.1773 42.7819 10.2686 42.9388C8.42024 43.1198 6.51152 42.7698 4.86857 41.8767C2.89944 40.8267 1.32897 39.0526 0.555812 36.9647C-0.16902 35.0457 -0.181101 32.8733 0.49541 30.9422C1.11152 29.1802 2.29541 27.6233 3.81756 26.5371C5.2793 25.4629 7.05514 24.8716 8.86722 24.7629Z" fill="white"/>
<path d="M57.3101 25.3905H59.8953V42.625C59.0376 42.625 58.1678 42.637 57.3101 42.6129C57.3221 36.8801 57.3101 31.1353 57.3101 25.3905Z" fill="white"/>
<path d="M23.376 31.3646C24.9706 31.0629 26.6982 31.4008 28.0149 32.3543C29.2109 33.1991 30.0445 34.5267 30.2982 35.975C30.6243 37.6526 30.2136 39.487 29.1263 40.8146C27.9545 42.2991 26.0337 43.0956 24.1612 42.975C22.4458 42.8784 20.7787 42.0215 19.7639 40.6215C18.6163 39.0767 18.3384 36.9526 18.9666 35.1422C19.5948 33.1991 21.3706 31.7146 23.376 31.3646ZM23.7384 33.6577C23.0861 33.8267 22.482 34.2008 22.0471 34.7319C20.8753 36.1319 20.9478 38.4129 22.2404 39.7163C22.9774 40.4646 24.0888 40.8146 25.1156 40.6094C26.07 40.4405 26.9035 39.8008 27.3626 38.956C28.1599 37.5198 27.9304 35.5405 26.7102 34.4181C25.925 33.6939 24.7774 33.3922 23.7384 33.6577Z" fill="white"/>
<path d="M36.1813 31.3647C38.0055 31.0147 39.9987 31.5216 41.3638 32.8009C43.5867 34.7922 43.8283 38.5215 41.9316 40.8146C40.784 42.2629 38.9236 43.0595 37.0873 42.975C35.3357 42.9267 33.6081 42.0577 32.5692 40.6215C31.3974 39.0405 31.1437 36.8681 31.8081 35.0216C32.4726 33.1388 34.2122 31.7026 36.1813 31.3647ZM36.5437 33.6578C35.8914 33.8267 35.2873 34.2009 34.8524 34.7198C33.6927 36.0957 33.741 38.3405 34.9853 39.656C35.7222 40.4405 36.8699 40.8267 37.933 40.6095C38.8753 40.4284 39.7209 39.8009 40.18 38.956C40.9652 37.5078 40.7357 35.5284 39.5034 34.406C38.7182 33.6819 37.5706 33.3922 36.5437 33.6578Z" fill="white"/>
<path d="M47.0417 32.0647C48.431 31.1957 50.2793 30.9543 51.7773 31.7026C52.2484 31.9078 52.635 32.2578 53.0095 32.6078C53.0216 32.2819 53.0095 31.944 53.0216 31.6061C53.831 31.6181 54.6404 31.6061 55.4619 31.6181V42.2629C55.4498 43.8681 55.039 45.5698 53.8793 46.7405C52.6109 48.0319 50.6659 48.4302 48.9142 48.1646C47.0417 47.8871 45.4109 46.5233 44.686 44.7974C45.4109 44.4474 46.1719 44.1698 46.9209 43.844C47.3437 44.8336 48.2015 45.6784 49.2766 45.8715C50.3518 46.0647 51.5961 45.7991 52.2968 44.906C53.0458 43.9888 53.0458 42.7336 53.0095 41.6112C52.4538 42.1543 51.8135 42.6371 51.0404 42.8181C49.3612 43.2888 47.5129 42.7095 46.2203 41.575C44.9156 40.4405 44.1424 38.6905 44.2149 36.9526C44.2511 34.9854 45.3625 33.0905 47.0417 32.0647ZM49.5424 33.6095C48.8055 33.7302 48.1169 34.1405 47.6458 34.7078C46.5102 36.0595 46.5102 38.2198 47.6578 39.5474C48.3102 40.3319 49.3612 40.7664 50.376 40.6578C51.3303 40.5612 52.2122 39.9578 52.6833 39.125C53.4807 37.7129 53.3478 35.794 52.2726 34.5629C51.6082 33.8026 50.5451 33.4285 49.5424 33.6095Z" fill="white"/>
<path d="M63.0001 32.6802C64.4498 31.3284 66.6847 30.8698 68.5451 31.5819C70.3089 32.2457 71.4324 33.9233 72.0001 35.6491C69.3787 36.7353 66.7693 37.8095 64.1478 38.8957C64.5102 39.5836 65.0659 40.2112 65.8149 40.4646C66.8659 40.8388 68.1223 40.706 69.0042 40.006C69.3545 39.7405 69.6323 39.3905 69.8981 39.0526C70.5626 39.4991 71.227 39.9336 71.8914 40.3801C70.9491 41.7922 69.3666 42.7819 67.6632 42.9388C65.7786 43.1681 63.7733 42.4439 62.5531 40.9715C60.5478 38.6543 60.7411 34.7681 63.0001 32.6802ZM64.2927 34.9129C63.882 35.5043 63.7129 36.2284 63.725 36.9405C65.4766 36.2164 67.2283 35.4922 68.98 34.756C68.6901 34.0801 67.9894 33.6698 67.2766 33.5612C66.129 33.356 64.933 33.9715 64.2927 34.9129Z" fill="white"/>
</g>
<defs>
<clipPath id="clip0_99_7125">
<rect width="72" height="72" fill="white" transform="translate(0 0.5)"/>
</clipPath>
</defs>
</svg>
