<svg width="10" height="11" viewBox="0 0 10 11" fill="none" xmlns="http://www.w3.org/2000/svg">
<path d="M5.57808 5.49948L8.50776 2.00729C8.55687 1.94925 8.51558 1.86108 8.43968 1.86108H7.54906C7.4966 1.86108 7.44638 1.88452 7.41178 1.9247L4.99549 4.80528L2.57919 1.9247C2.54571 1.88452 2.49549 1.86108 2.44191 1.86108H1.55129C1.4754 1.86108 1.4341 1.94925 1.48321 2.00729L4.4129 5.49948L1.48321 8.99167C1.47221 9.0046 1.46515 9.02042 1.46287 9.03725C1.4606 9.05408 1.4632 9.0712 1.47037 9.0866C1.47753 9.10199 1.48897 9.11501 1.50331 9.12409C1.51766 9.13318 1.53431 9.13796 1.55129 9.13787H2.44191C2.49437 9.13787 2.54459 9.11443 2.57919 9.07425L4.99549 6.19367L7.41178 9.07425C7.44526 9.11443 7.49549 9.13787 7.54906 9.13787H8.43968C8.51558 9.13787 8.55687 9.0497 8.50776 8.99167L5.57808 5.49948Z" fill="black" fill-opacity="0.45"/>
</svg>
