<svg width="72" height="73" viewBox="0 0 72 73" fill="none" xmlns="http://www.w3.org/2000/svg">
<path d="M7.33723 34.7811C7.33723 36.4206 6.54286 37.531 4.5311 37.531H3.89542V32.3096C4.12141 32.2969 4.33246 32.2969 4.5311 32.2969C6.43598 32.2967 7.33723 33.1953 7.33723 34.7811ZM5.27222 39.8044C8.87182 39.8044 11.1477 37.9534 11.1477 34.7289C11.1475 31.1857 8.71277 29.9171 4.74287 29.9171C3.20756 29.9171 1.35486 30.0225 0.0318604 30.1811V42.8188H3.8956V39.8044H5.27222ZM57.0403 34.7811C57.0403 36.4206 56.247 37.531 54.2347 37.531H53.6012V32.3096C53.8252 32.2969 54.0366 32.2969 54.2347 32.2969C56.1397 32.2967 57.0403 33.1953 57.0403 34.7811ZM54.9776 39.8044C58.5743 39.8044 60.8515 37.9534 60.8515 34.7289C60.8515 31.1857 58.4171 29.9171 54.4468 29.9171C52.9118 29.9171 51.0581 30.0225 49.7349 30.1811V42.8188H53.6006V39.8044H54.9776ZM65.8793 33.4064C65.8793 32.7193 66.5683 32.4016 67.6788 32.4016C68.8967 32.4016 70.221 32.6661 71.12 33.0377L70.8028 30.2872C69.7965 30.0757 68.8967 29.9171 67.2563 29.9171C64.133 29.9171 62.0163 31.1469 62.0163 33.7246C62.0163 38.1649 68.0516 37.2668 68.0516 39.3289C68.0516 40.1212 67.4684 40.544 66.0386 40.544C64.7701 40.544 62.8101 40.1212 61.6458 39.5399L62.0705 42.4489C63.2339 42.8718 64.8219 43.0826 66.0927 43.0826C69.3206 43.0826 71.9679 42.0249 71.9679 38.8519C71.9679 34.6234 65.8793 35.4158 65.8793 33.4064ZM46.8248 30.1811H42.961V42.8188H46.8248V30.1811ZM31.1562 30.1811H27.2921V42.8188H31.1562V30.1811ZM37.8786 40.28V30.1811H34.0145V42.8188H41.0023L41.584 40.28H37.8786ZM24.434 30.1811H20.5699V35.2042H16.5469V30.1811H12.6821V42.8188H16.5468V37.848H20.5697V42.8188H24.4338L24.434 30.1811Z" fill="white"/>
</svg>
