<svg width="72" height="73" viewBox="0 0 72 73" fill="none" xmlns="http://www.w3.org/2000/svg">
<path d="M7.33735 34.7811C7.33735 36.4206 6.54298 37.531 4.53122 37.531H3.89554V32.3096C4.12153 32.2969 4.33258 32.2969 4.53122 32.2969C6.4361 32.2967 7.33735 33.1953 7.33735 34.7811ZM5.27234 39.8044C8.87194 39.8044 11.1478 37.9534 11.1478 34.7289C11.1477 31.1857 8.71289 29.9171 4.74299 29.9171C3.20768 29.9171 1.35498 30.0225 0.0319824 30.1811V42.8188H3.89572V39.8044H5.27234ZM57.0404 34.7811C57.0404 36.4206 56.2471 37.531 54.2348 37.531H53.6013V32.3096C53.8253 32.2969 54.0367 32.2969 54.2348 32.2969C56.1399 32.2967 57.0404 33.1953 57.0404 34.7811ZM54.9777 39.8044C58.5744 39.8044 60.8516 37.9534 60.8516 34.7289C60.8516 31.1857 58.4172 29.9171 54.4469 29.9171C52.912 29.9171 51.0582 30.0225 49.735 30.1811V42.8188H53.6007V39.8044H54.9777ZM65.8794 33.4064C65.8794 32.7193 66.5684 32.4016 67.6789 32.4016C68.8968 32.4016 70.2211 32.6661 71.1202 33.0377L70.803 30.2872C69.7966 30.0757 68.8968 29.9171 67.2564 29.9171C64.1331 29.9171 62.0164 31.1469 62.0164 33.7246C62.0164 38.1649 68.0517 37.2668 68.0517 39.3289C68.0517 40.1212 67.4686 40.544 66.0387 40.544C64.7702 40.544 62.8103 40.1212 61.646 39.5399L62.0706 42.4489C63.234 42.8718 64.822 43.0826 66.0928 43.0826C69.3207 43.0826 71.968 42.0249 71.968 38.8519C71.968 34.6234 65.8794 35.4158 65.8794 33.4064ZM46.8249 30.1811H42.9612V42.8188H46.8249V30.1811ZM31.1564 30.1811H27.2923V42.8188H31.1564V30.1811ZM37.8788 40.28V30.1811H34.0147V42.8188H41.0025L41.5842 40.28H37.8788ZM24.4341 30.1811H20.57V35.2042H16.5471V30.1811H12.6822V42.8188H16.5469V37.848H20.5699V42.8188H24.434L24.4341 30.1811Z" fill="white"/>
</svg>
