<svg width="72" height="73" viewBox="0 0 72 73" fill="none" xmlns="http://www.w3.org/2000/svg">
<g clip-path="url(#clip0_99_7142)">
<path fill-rule="evenodd" clip-rule="evenodd" d="M62.9651 39.1923C69.0782 36.2013 72.4498 32.7966 71.9517 29.9768C70.9033 24.0505 52.9413 23.0959 34.4044 26.3868C25.9214 27.8932 17.8082 30.1542 12.3157 32.3963C12.6074 32.3779 12.8114 32.3914 12.8114 32.3914C15.1855 32.4569 15.0405 33.933 15.0405 33.933L15.0442 34.8347H13.1515V34.2226C13.1515 33.7884 12.6226 33.7593 12.6226 33.7593C12.2178 33.7593 12.1232 34.0342 12.1232 34.0342C11.8991 34.4537 12.2826 34.8158 12.2826 34.8158C12.478 35.0334 13.462 35.4889 13.462 35.4889C13.7807 35.6122 14.2945 35.9305 14.2945 35.9305C15.2572 36.5094 15.1699 37.6094 15.1699 37.6094V38.3337C15.0544 40.1289 12.5792 40.0776 12.5792 40.0776C9.98757 40.0776 10.0441 38.3775 10.0441 38.3775V37.4889H12.0605V38.101C12.0605 38.6221 12.564 38.6454 12.564 38.6454C13.1142 38.6667 13.1609 38.1346 13.1609 38.1346C13.2359 37.6172 12.6656 37.2915 12.6656 37.2915C12.1617 37.0301 11.6598 36.7647 11.1601 36.4955C10.6967 36.1915 10.5087 35.9162 10.5087 35.9162C10.1756 35.4967 10.1977 34.8449 10.1977 34.8449V34.2804C10.1977 33.4987 10.4079 33.2746 10.4079 33.2746C10.4166 33.2578 10.4258 33.2411 10.4353 33.2247C3.66428 36.3537 -0.480777 39.9806 0.0444226 42.9626C1.10998 49.0118 18.0495 49.8053 37.9731 46.7369C47.1469 45.3243 55.1306 42.7237 61.1724 40.0305C61.1294 40.0326 61.0835 40.0326 61.0397 40.0326C61.0397 40.0326 58.5976 40.23 58.5398 38.2616V34.4541C58.5398 34.4541 58.2359 32.3553 60.9717 32.3553C60.9717 32.3553 62.7529 32.2976 63.2232 33.3541C63.2232 33.3541 63.4551 33.6368 63.3936 34.8052H61.4964V34.2066C61.4964 34.2066 61.4932 33.7232 61.0012 33.7232C61.0012 33.7232 60.4866 33.7449 60.4866 34.1501V38.0875C60.4866 38.0875 60.4649 38.6159 61.0442 38.6159C61.0442 38.6159 61.5194 38.6053 61.5194 38.0494V36.9109H61.0016V35.8507H63.4387V38.0875C63.4387 38.0875 63.4321 38.5578 63.2371 38.8327C63.238 38.8331 63.0405 39.1358 62.9651 39.1923ZM56.0183 39.8306H53.7836L51.7905 35.4336H51.7065L51.8192 39.8302H49.9437V32.6405H52.2473L54.1723 37.0018H54.2547L54.1195 32.6396H56.0183V39.8306ZM44.2669 38.0449C44.2669 38.654 44.8453 38.6233 44.8453 38.6233C45.3959 38.6233 45.3677 38.0297 45.3677 38.0297V32.6093H47.3775V38.0952C47.3775 40.0719 44.8748 40.042 44.8748 40.042C41.9936 40.042 42.2046 38.001 42.2046 38.001V32.6089H44.2603L44.2669 38.0449ZM37.9506 34.8347V34.2226C37.9506 33.788 37.4225 33.7593 37.4225 33.7593C37.0169 33.7593 36.9223 34.0342 36.9223 34.0342C36.6982 34.4537 37.0825 34.8158 37.0825 34.8158C37.2779 35.0325 38.2619 35.4889 38.2619 35.4889C38.5802 35.6118 39.0939 35.9305 39.0939 35.9305C40.0567 36.5094 39.9702 37.6094 39.9702 37.6094V38.3337C39.8543 40.1289 37.3795 40.0781 37.3795 40.0781C34.7875 40.0781 34.844 38.3775 34.844 38.3775V37.4889H36.8608V38.101C36.8608 38.6221 37.3643 38.6454 37.3643 38.6454C37.9149 38.6667 37.9604 38.1346 37.9604 38.1346C38.0366 37.6172 37.4659 37.2915 37.4659 37.2915C36.962 37.03 36.4602 36.7646 35.9604 36.4955C35.4966 36.1915 35.309 35.9162 35.309 35.9162C34.9763 35.4963 34.9972 34.8445 34.9972 34.8445V34.28C34.9972 33.4983 35.2074 33.2742 35.2074 33.2742C35.7432 32.2681 37.6105 32.391 37.6105 32.391C39.9846 32.4565 39.8395 33.933 39.8395 33.933L39.8436 34.8347H37.9506ZM28.0189 32.6384L28.6248 36.5737H28.7727L29.4064 32.6388H32.5367L32.7391 39.8294H30.8571L30.8124 34.4131H30.6826L29.7022 39.8282H27.7337L26.7411 34.4115H26.594L26.5715 39.8298H24.7001L24.8583 32.6384H28.0189ZM20.6755 39.8216L19.9381 34.2472H19.773L19.0352 39.8216H17.0208L18.2654 32.6323H21.4457L22.6911 39.8216H20.6755Z" fill="white"/>
</g>
<defs>
<clipPath id="clip0_99_7142">
<rect width="72" height="72" fill="white" transform="translate(0 0.5)"/>
</clipPath>
</defs>
</svg>
