<svg width="20" height="20" viewBox="0 0 20 20" fill="none" xmlns="http://www.w3.org/2000/svg">
<path d="M17.843 8.3186L17.8333 8.36715V8.39931L17.7899 8.42098L17.7341 8.47543L14.3175 11.8088L14.1285 11.9931L14.1741 12.2531L15.007 17.0005C15.0406 17.2069 14.9178 17.3679 14.7717 17.4167H14.7715H14.7712H14.7709H14.7707H14.7704H14.7701H14.7699H14.7696H14.7693H14.7691H14.7688H14.7685H14.7683H14.768H14.7677H14.7675H14.7672H14.767H14.7667H14.7664H14.7662H14.7659H14.7657H14.7654H14.7651H14.7649H14.7646H14.7644H14.7641H14.7638H14.7636H14.7633H14.7631H14.7628H14.7626H14.7623H14.7621H14.7618H14.7616H14.7613H14.7611H14.7608H14.7606H14.7603H14.7601H14.7598H14.7596H14.7593H14.7591H14.7588H14.7586H14.7583H14.7581H14.7578H14.7576H14.7573H14.7571H14.7568H14.7566H14.7563H14.7561H14.7558H14.7556H14.7553H14.7551H14.7549H14.7546H14.7544H14.7541H14.7539H14.7536H14.7534H14.7531H14.7529H14.7526H14.7524H14.7522H14.7519H14.7517H14.7514H14.7512H14.7509H14.7507H14.7504H14.7502H14.75H14.7497H14.7495H14.7492H14.749H14.7487H14.7485H14.7483H14.748H14.7478H14.7475H14.7473H14.747H14.7468H14.7465H14.7463H14.746H14.7458H14.7456H14.7453H14.7451H14.7448H14.7446H14.7443H14.7441H14.7438H14.7436H14.7433H14.7431H14.7428H14.7426H14.7424H14.7421H14.7419H14.7416H14.7414H14.7411H14.7409H14.7406H14.7404H14.7401H14.7399H14.7396H14.7394H14.7391H14.7389H14.7386H14.7384H14.7381H14.7379H14.7376H14.7373H14.7371H14.7368H14.7366H14.7363H14.7361H14.7358H14.7356H14.7353H14.735H14.7348H14.7345H14.7343H14.734H14.7337H14.7335H14.7332H14.733H14.7327H14.7324H14.7322H14.7319H14.7317H14.7314H14.7311H14.7309H14.7306H14.7303H14.7301H14.7298H14.7295H14.7293H14.729H14.7287H14.7284H14.7282H14.7279H14.7276H14.7274H14.7271H14.7268H14.7265H14.7263H14.726H14.7257H14.7254H14.7251H14.7249H14.7246H14.7243H14.724H14.7237H14.7235H14.7232H14.7229H14.7226H14.7223H14.722H14.7217H14.7215H14.7212H14.7209H14.7206H14.7203H14.72H14.7197H14.7194H14.7191H14.7188H14.7185H14.7182H14.7179H14.7176H14.7173H14.717H14.7167H14.7164H14.7161H14.7158H14.7155H14.7152H14.7149H14.7146H14.7143H14.7139H14.7136H14.7133H14.713H14.7127H14.7124H14.7121H14.7117H14.7114H14.7111H14.7108H14.7105H14.7101H14.7098H14.7095H14.7091H14.7088H14.7085H14.7082H14.7078H14.7075H14.7072H14.7068H14.7065H14.7062H14.7058H14.7055H14.7051H14.7048H14.7044H14.7041H14.7038H14.7034H14.7031H14.7027H14.7024H14.702H14.7016H14.7013H14.7009H14.7006H14.7002H14.6999H14.6995H14.6991H14.6988H14.6984H14.698H14.6977H14.6973H14.6969H14.6966H14.6962H14.6958H14.6954H14.6951H14.6947H14.6943H14.6939H14.6935H14.6931H14.6928H14.6924H14.692H14.6916H14.6912H14.6908H14.6904H14.69H14.6896H14.6892H14.6888H14.6884H14.688H14.6876H14.6872H14.6868H14.6864H14.686H14.6855H14.6851H14.6847H14.6843H14.6839H14.6834H14.683H14.6826H14.6822H14.6817H14.6813H14.6809H14.6804H14.68H14.6796H14.6791H14.6787H14.6783H14.6778H14.6774H14.6769H14.6765H14.676H14.6756H14.6751H14.6747H14.6742H14.6737H14.6733H14.6728H14.6723H14.6719H14.6714H14.6709H14.6705H14.67H14.6695H14.669H14.6686H14.6681H14.6676H14.6671H14.6666C14.6234 17.4167 14.59 17.4166 14.559 17.4156C14.5464 17.4152 14.5357 17.4147 14.5267 17.4141L14.4839 17.3914L10.2339 15.1414L9.99996 15.0176L9.76602 15.1414L5.51602 17.3914L5.50419 17.3977L5.49271 17.4046C5.35367 17.488 5.15495 17.4627 5.02362 17.2613C5.00747 17.2218 5.00116 17.1709 5.00012 17.0426L5.82577 12.3364L5.87138 12.0764L5.68245 11.8921L2.26841 8.56132C2.13211 8.42345 2.1327 8.24102 2.27018 8.10354L2.32755 8.04617L2.34819 8.0049C2.36247 8.00242 2.38462 7.99999 2.41663 7.99999H2.45154L2.48612 7.99514L7.23612 7.32847L7.50125 7.29126L7.61725 7.04997L9.68906 2.74061C9.82037 2.53747 10.0199 2.51172 10.1594 2.5954L10.1758 2.60528L10.193 2.61387C10.2455 2.64011 10.2585 2.65316 10.2609 2.65554L10.261 2.65563L10.2611 2.65571C10.2634 2.65808 10.2765 2.6711 10.3027 2.7236L10.7473 2.50131L10.3027 2.7236L12.4694 7.05693L12.5869 7.29195L12.8471 7.32847L17.5971 7.99514L17.6317 7.99999H17.6666C17.6671 7.99999 17.718 8.00405 17.779 8.09041C17.8394 8.17597 17.8532 8.2677 17.843 8.3186Z" fill="#F2A742" stroke="#D27D39"/>
</svg>
