<svg width="72" height="73" viewBox="0 0 72 73" fill="none" xmlns="http://www.w3.org/2000/svg">
<path fill-rule="evenodd" clip-rule="evenodd" d="M6.44413 41.7451H3.66657V33.7833H0.45459V31.3935H9.82719V33.7833H6.44413V41.7451ZM11.1413 34.1251C11.5604 31.6886 13.7328 31.3315 15.8126 31.3315C19.3821 31.3315 20.639 32.216 20.639 35.9562C20.639 39.7893 20.546 41.8224 15.8903 41.8224C14.0436 41.8224 11.8398 41.6831 11.219 39.557C11.0173 38.8585 11.0016 38.1294 11.0016 37.3998V36.639C11.0016 35.8165 11.0016 34.9476 11.1413 34.1251ZM13.8415 37.2131C13.8415 38.6721 13.8725 39.4479 15.5952 39.4479C17.4886 39.4479 17.7834 38.9821 17.7834 37.2131C17.7834 36.7167 17.7991 36.2046 17.7991 35.7078C17.7991 34.3264 17.5817 33.706 16.092 33.706C13.9196 33.706 13.8882 33.9234 13.8419 36.5923V37.2131H13.8415ZM28.7539 34.6215C28.7539 33.5659 28.3811 33.4266 27.3883 33.4266H27.1089C26.3794 33.4266 25.6036 33.4576 25.6036 34.3731C25.6036 35.0096 25.79 35.3043 26.4571 35.351C28.8622 35.5527 31.7026 35.0716 31.7026 38.4084C31.7026 39.2933 31.7026 40.4105 30.9731 41.0313C30.1192 41.7451 28.9399 41.8071 27.8537 41.8071H27.1709C24.3153 41.8071 22.8253 41.6831 22.8253 38.3927H25.4635C25.4635 39.1685 25.6499 39.6343 26.5187 39.6343H27.7136C28.4121 39.6343 28.9706 39.5409 28.9706 38.6097C28.9706 37.6942 28.4275 37.6942 27.6513 37.6479C24.6563 37.4462 22.8406 37.7252 22.8406 34.2801C22.8406 32.4797 23.5544 31.5332 25.4011 31.3935C26.0062 31.3468 26.6114 31.3158 27.2168 31.3158C29.6224 31.3158 31.4071 31.3625 31.4071 34.2958C31.4071 34.4045 31.3914 34.5132 31.3914 34.6219H28.7539V34.6215ZM43.0261 41.7451H40.2478V37.6789H36.6473V41.7451H33.8694V31.3935H36.6473V35.3043H40.2478V31.3935H43.0261V41.7451ZM48.4501 41.7451H45.6726V31.3935H48.4501V41.7451ZM51.1145 31.3935H56.7481C58.6258 31.3935 59.8364 31.9056 59.8364 34.0317C59.8364 35.2267 59.7277 36.1889 58.2228 36.4373V36.5299C59.6198 36.6543 60.0071 37.3991 60.0071 38.7647C60.0071 41.0926 59.2317 41.7447 56.7948 41.7447H51.1145V31.3935ZM55.6619 35.5371C56.4227 35.5061 57.0895 35.5994 57.0895 34.6525C57.0895 33.9077 56.8881 33.6746 56.1433 33.6746H53.8928V35.5371H55.6619ZM55.7399 39.4636C56.6088 39.4636 57.2449 39.4479 57.2449 38.4394C57.2449 37.4772 56.7948 37.4462 55.9259 37.4462H53.8928V39.4636H55.7399ZM68.571 41.7451H71.3957L68.2446 31.3935H64.0394L60.935 41.7451H63.822L64.4136 39.6657H67.9708L68.571 41.7451ZM64.984 37.6636L66.1812 33.4576L67.3944 37.6636H64.984Z" fill="white"/>
</svg>
