<svg width="110" height="129" viewBox="0 0 110 129" fill="none" xmlns="http://www.w3.org/2000/svg">
<mask id="mask0_120_8390" style="mask-type:luminance" maskUnits="userSpaceOnUse" x="103" y="54" width="1" height="1">
<path d="M103.547 54.352H103.757V54.696H103.547V54.352Z" fill="white"/>
</mask>
<g mask="url(#mask0_120_8390)">
<path d="M103.548 54.6839C103.548 54.6436 103.548 54.6046 103.547 54.5657C103.547 54.6046 103.548 54.6436 103.548 54.6839Z" fill="black" fill-opacity="0.6"/>
</g>
<path d="M47.8534 61.2213V60.1476L47.6815 59.9662V51.553L47.8534 51.3716V50.2966L48.0047 50.1367V49.1262C47.4088 49.1369 46.8153 49.1503 46.2263 49.1651V50.1367L46.3776 50.2966V51.3608L46.5598 51.553H46.5494V59.9662H46.5598L46.3776 60.1583V61.2213L46.2263 61.3825V62.4414C46.8153 62.4347 47.4088 62.4279 48.0047 62.4226V61.3825L47.8534 61.2213Z" fill="black"/>
<path d="M42.2732 61.357V60.2833L42.1013 60.1019V51.6941L42.2732 51.5127V50.439L42.4245 50.2791V49.2874C41.8286 49.3116 41.2351 49.3371 40.6461 49.364V50.2791L40.7974 50.439V51.5019L40.9796 51.6941H40.9692V60.1019H40.9796L40.7974 60.2941V61.357L40.6461 61.5169V62.5287C41.2351 62.518 41.8286 62.5059 42.4245 62.4965V61.5169L42.2732 61.357Z" fill="black"/>
<path d="M37.0161 61.4591V60.4016L36.8442 60.2228V51.9427L37.0161 51.7639V50.7064L37.1685 50.5478V49.5454C36.5704 49.5817 35.978 49.6193 35.389 49.6583V50.5478L35.5414 50.7064V51.7532L35.7225 51.9413H35.7122V60.2228H35.7225L35.5414 60.4123V61.4591L35.389 61.6163V62.6577C35.978 62.6403 36.5704 62.6241 37.1685 62.608V61.6163L37.0161 61.4591Z" fill="black"/>
<path d="M53.1094 61.2212V60.1476L52.9375 59.9662V51.553L53.1094 51.3716V50.2966L53.2618 50.1367V49.0711C52.6659 49.0724 52.0736 49.0751 51.4823 49.0791V50.1367L51.6335 50.2966V51.3608L51.8157 51.553H51.8054V59.9662H51.8157L51.6335 60.1583V61.2212L51.4823 61.3825V62.3997C52.0724 62.397 52.6659 62.3957 53.2618 62.3943V61.3825L53.1094 61.2212Z" fill="black"/>
<path d="M32.3263 61.6875V60.6394L32.1544 60.462V52.2544L32.3263 52.077V51.0289L32.4776 50.873V49.8692C31.8794 49.9163 31.2859 49.966 30.6992 50.0157V50.873L30.8505 51.0289V52.0663L31.0327 52.2531H31.0223V60.462H31.0327L30.8505 60.6502V61.6875L30.6992 61.8434V62.8122C31.2859 62.7907 31.8794 62.7692 32.4776 62.7491V61.8434L32.3263 61.6875Z" fill="black"/>
<path d="M28.3502 61.8972V60.8598L28.1784 60.6851V52.5621L28.3502 52.3861V51.3487L28.5015 51.1942V50.2186C27.9022 50.2778 27.3087 50.3382 26.7231 50.4V51.1942L26.8744 51.3487V52.3767L27.0566 52.5621H27.0463V60.6851H27.0566L26.8744 60.8705V61.8972L26.7231 62.0517V62.9775C27.3087 62.9507 27.9022 62.9251 28.5015 62.8996V62.0517L28.3502 61.8972Z" fill="black"/>
<path d="M24.3742 62.131V61.1097L24.2023 60.9377V52.9411L24.3742 52.7691V51.7478L24.5254 51.596V50.6473C23.925 50.7185 23.3314 50.7924 22.7471 50.8677V51.596L22.8983 51.7478V52.7583L23.0805 52.9411H23.0702V60.9377H23.0805L22.8983 61.1205V62.131L22.7471 62.2842V63.1791C23.3314 63.1455 23.9238 63.1146 24.5254 63.0837V62.2842L24.3742 62.131Z" fill="black"/>
<path d="M20.3981 62.4011V61.4013L20.2262 61.2333V53.4033L20.3981 53.234V52.2343L20.5493 52.0851V51.166C19.9466 51.252 19.3531 51.3407 18.771 51.432V52.0851L18.9222 52.2343V53.2246L19.1044 53.4033H19.0941V61.2333H19.1044L18.9222 61.4121V62.4011L18.771 62.5502V63.4223C19.3519 63.3833 19.9455 63.3444 20.5493 63.3068V62.5502L20.3981 62.4011Z" fill="black"/>
<path d="M16.4221 62.8123V61.8233L16.2503 61.6553V53.9086L16.4221 53.7419V52.7529L16.5734 52.6051V51.7935C15.9672 51.8997 15.3737 52.0072 14.795 52.1173V52.6051L14.9463 52.7529V53.7312L15.1285 53.9086H15.1182V61.6553H15.1285L14.9463 61.8327V62.8123L14.795 62.9601V63.7193C15.3725 63.6709 15.9661 63.6239 16.5734 63.5782V62.9601L16.4221 62.8123Z" fill="black"/>
<path d="M12.4461 63.0514V62.1189L12.2742 61.9603V54.6517L12.4461 54.4944V53.5619L12.5973 53.4221V52.5608C11.9866 52.6925 11.393 52.8268 10.819 52.9626V53.4221L10.9702 53.5619V54.485L11.1524 54.6517H11.1421V61.9603H11.1524L10.9702 62.1283V63.0514L10.819 63.1912V64.0902C11.3907 64.0297 11.9843 63.9706 12.5973 63.9128V63.1912L12.4461 63.0514Z" fill="black"/>
<path d="M8.47003 63.644V62.7397L8.29815 62.5878V55.5117L8.47003 55.3585V54.4555L8.62128 54.3211V53.5242C8.00138 53.6949 7.40669 53.8696 6.8418 54.047V54.3211L6.99419 54.4555V55.3491L7.17638 55.5117H7.16607V62.5878H7.17638L6.99419 62.7491V63.644L6.8418 63.7784V64.5766C7.40096 64.496 7.99565 64.4167 8.62128 64.3401V63.7784L8.47003 63.644Z" fill="black"/>
<path d="M62.1466 61.2213V60.1476L62.3185 59.9662V51.553L62.1466 51.3716V50.2966L61.9954 50.1367V49.1262C62.5912 49.1369 63.1847 49.1503 63.7748 49.1651V50.1367L63.6224 50.2966V51.3608L63.4403 51.553H63.4506V59.9662H63.4403L63.6224 60.1583V61.2213L63.7748 61.3825V62.4414C63.1847 62.4347 62.5912 62.4279 61.9954 62.4226V61.3825L62.1466 61.2213Z" fill="black"/>
<path d="M67.7268 61.357V60.2833L67.8987 60.1019V51.6941L67.7268 51.5127V50.439L67.5756 50.2791V49.2874C68.1714 49.3116 68.7649 49.3371 69.3539 49.364V50.2791L69.2026 50.439V51.5019L69.0205 51.6941H69.0308V60.1019H69.0205L69.2026 60.2941V61.357L69.3539 61.5169V62.5287C68.7649 62.518 68.1725 62.5059 67.5756 62.4965V61.5169L67.7268 61.357Z" fill="black"/>
<path d="M72.9838 61.4591V60.4016L73.1557 60.2228V51.9427L72.9838 51.7639V50.7064L72.8314 50.5478V49.5454C73.4295 49.5817 74.0219 49.6193 74.6109 49.6583V50.5478L74.4597 50.7064V51.7532L74.2775 51.9413H74.2878V60.2228H74.2775L74.4597 60.4123V61.4591L74.6109 61.6163V62.6577C74.0231 62.6403 73.4295 62.6241 72.8314 62.608V61.6163L72.9838 61.4591Z" fill="black"/>
<path d="M56.8907 61.2212V60.1476L57.0626 59.9662V51.553L56.8907 51.3716V50.2966L56.7383 50.1367V49.0711C57.3341 49.0724 57.9277 49.0751 58.5178 49.0791V50.1367L58.3665 50.2966V51.3608L58.1843 51.553H58.1946V59.9662H58.1843L58.3665 60.1583V61.2212L58.5178 61.3825V62.3997C57.9277 62.397 57.3341 62.3957 56.7383 62.3943V61.3825L56.8907 61.2212Z" fill="black"/>
<path d="M77.6737 61.6875V60.6394L77.8456 60.462V52.2544L77.6737 52.077V51.0289L77.5225 50.873V49.8692C78.1206 49.9163 78.7141 49.966 79.3008 50.0157V50.873L79.1495 51.0289V52.0663L78.9674 52.2531H78.9777V60.462H78.9674L79.1495 60.6502V61.6875L79.3008 61.8434V62.8122C78.7141 62.7907 78.1206 62.7692 77.5225 62.7491V61.8434L77.6737 61.6875Z" fill="black"/>
<path d="M81.6498 61.8972V60.8598L81.8217 60.6851V52.5621L81.6498 52.3861V51.3487L81.4985 51.1942V50.2186C82.0978 50.2778 82.6913 50.3382 83.2769 50.4V51.1942L83.1256 51.3487V52.3767L82.9434 52.5621H82.9537V60.6851H82.9434L83.1256 60.8705V61.8972L83.2769 62.0517V62.9775C82.6913 62.9507 82.0978 62.9251 81.4985 62.8996V62.0517L81.6498 61.8972Z" fill="black"/>
<path d="M85.6259 62.131V61.1097L85.7977 60.9377V52.9411L85.6259 52.7691V51.7478L85.4746 51.596V50.6473C86.0762 50.7185 86.6686 50.7924 87.2541 50.8677V51.596L87.1017 51.7478V52.7583L86.9195 52.9411H86.9298V60.9377H86.9195L87.1017 61.1205V62.131L87.2541 62.2842V63.1791C86.6697 63.1455 86.0762 63.1146 85.4746 63.0837V62.2842L85.6259 62.131Z" fill="black"/>
<path d="M89.6019 62.4011V61.4013L89.7738 61.2333V53.4033L89.6019 53.234V52.2343L89.4507 52.0851V51.166C90.0534 51.252 90.6469 51.3407 91.2302 51.432V52.0851L91.0778 52.2343V53.2233L90.8956 53.402H90.9059V61.2333H90.8956L91.0778 61.4107V62.4011L91.2302 62.5502V63.4223C90.6481 63.3833 90.0545 63.3444 89.4507 63.3068V62.5502L89.6019 62.4011Z" fill="black"/>
<path d="M93.5779 62.8123V61.8233L93.7498 61.6553V53.9086L93.5779 53.7419V52.7529L93.4266 52.6051V51.7935C94.0328 51.8997 94.6263 52.0072 95.2061 52.1173V52.6051L95.0537 52.7529V53.7312L94.8715 53.9086H94.8818V61.6553H94.8715L95.0537 61.8327V62.8123L95.2061 62.9601V63.7193C94.6275 63.6709 94.0339 63.6239 93.4266 63.5782V62.9601L93.5779 62.8123Z" fill="black"/>
<path d="M97.554 63.0514V62.1189L97.7258 61.9603V54.6517L97.554 54.4944V53.5619L97.4027 53.4221V52.5608C98.0134 52.6925 98.607 52.8268 99.1822 52.9626V53.4221L99.0298 53.5619V54.485L98.8488 54.6517H98.8579V61.9603H98.8488L99.0298 62.1283V63.0514L99.1822 63.1912V64.0902C98.6093 64.0297 98.0157 63.9706 97.4027 63.9128V63.1912L97.554 63.0514Z" fill="black"/>
<path d="M101.53 63.644V62.7397L101.702 62.5878V55.5117L101.53 55.3585V54.4555L101.379 54.3211V53.5242C101.999 53.6949 102.593 53.8696 103.158 54.047V54.3211L103.006 54.4555V55.3491L102.825 55.5117H102.834V62.5878H102.825L103.006 62.7491V63.644L103.158 63.7784V64.5766C102.599 64.496 102.006 64.4167 101.379 64.3401V63.7784L101.53 63.644Z" fill="black"/>
<mask id="mask1_120_8390" style="mask-type:luminance" maskUnits="userSpaceOnUse" x="6" y="39" width="98" height="12">
<path d="M6.24255 39.56H103.547V50.224H6.24255V39.56Z" fill="white"/>
</mask>
<g mask="url(#mask1_120_8390)">
<path d="M103.522 49.2444C103.518 48.9273 103.515 48.6478 103.51 48.4126C95.4434 43.215 76.9806 39.5815 55.4905 39.5815C33.0241 39.5815 13.867 43.5536 6.43738 49.1302C6.43738 49.3653 6.43738 49.622 6.43738 49.8975C13.867 44.7979 33.0241 41.1671 55.4905 41.1671C76.8488 41.1671 95.2154 44.4486 103.359 49.153C103.36 49.1544 103.361 49.153 103.362 49.1544C103.418 49.1866 103.472 49.2175 103.522 49.2444Z" fill="black"/>
</g>
<mask id="mask2_120_8390" style="mask-type:luminance" maskUnits="userSpaceOnUse" x="103" y="54" width="1" height="5">
<path d="M103.547 54.352H103.757V58.136H103.547V54.352Z" fill="white"/>
</mask>
<g mask="url(#mask2_120_8390)">
<path d="M103.556 58.0755C103.554 56.8326 103.553 55.6608 103.55 54.5818C103.552 55.6501 103.554 56.8218 103.556 58.0755Z" fill="black" fill-opacity="0.6"/>
</g>
<mask id="mask3_120_8390" style="mask-type:luminance" maskUnits="userSpaceOnUse" x="55" y="32" width="5" height="8">
<path d="M55.4399 32.4368H59.8399V39.904H55.4399V32.4368Z" fill="white"/>
</mask>
<g mask="url(#mask3_120_8390)">
<path fill-rule="evenodd" clip-rule="evenodd" d="M59.6223 33.1288C59.0104 32.8748 58.3859 32.9595 57.774 33.1006C57.3295 33.2 56.886 33.2565 56.4426 33.1006C56.2982 33.0442 56.1905 32.9877 56.1905 32.762C56.1779 32.551 56.0461 32.4381 55.8536 32.4516C55.6737 32.4663 55.5786 32.5927 55.566 32.7902C55.5546 32.8748 55.5546 32.9595 55.5546 33.0442C55.5546 33.8974 55.5557 34.7507 55.5603 35.604V39.7024H55.9774V35.6336C56.446 35.8472 57.137 35.9077 57.5827 35.7975C57.8222 35.7545 58.0616 35.7128 58.3023 35.6698C58.7938 35.5852 59.2865 35.6564 59.7781 35.8539C59.7781 34.9509 59.7781 34.0896 59.7781 33.2135C59.7185 33.1852 59.6704 33.157 59.6223 33.1288Z" fill="black"/>
</g>
<mask id="mask4_120_8390" style="mask-type:luminance" maskUnits="userSpaceOnUse" x="6" y="41" width="98" height="12">
<path d="M6.24255 41.28H103.547V52.288H6.24255V41.28Z" fill="white"/>
</mask>
<g mask="url(#mask4_120_8390)">
<path d="M103.51 49.7295C103.512 49.665 103.497 49.5642 103.481 49.489C103.46 49.4487 103.481 49.489 103.387 49.4151C95.3208 44.6636 76.8569 41.3418 55.3668 41.3418C33.0219 41.3418 13.9529 44.9337 6.43738 49.9902V51.9937C6.43738 52.0085 6.43738 52.0233 6.43738 52.0381C10.3779 50.1111 17.6196 48.4771 26.9031 47.3685C35.097 46.397 44.8709 45.8313 55.3668 45.8313C76.5658 45.8313 94.8201 48.1345 103.053 51.4468C103.061 51.4508 103.511 51.6081 103.511 51.6269C103.516 51.6282 103.519 51.6296 103.523 51.6309C103.524 51.5261 103.524 51.3662 103.522 51.1808C103.526 50.9738 103.522 50.3221 103.51 49.7295ZM10.0089 50.052C10.0089 50.0829 9.98602 50.1084 9.95738 50.1084H9.33634C9.30769 50.1084 9.28592 50.0829 9.28592 50.052V49.1853C9.28592 49.1544 9.30769 49.1288 9.33634 49.1288H9.95738C9.98602 49.1288 10.0089 49.1544 10.0089 49.1853V50.052ZM14.2749 48.9018C14.2749 48.9474 14.2416 48.9851 14.1993 48.9851H13.2688C13.2264 48.9851 13.1932 48.9474 13.1932 48.9018V47.6037C13.1932 47.5567 13.2264 47.519 13.2688 47.519H14.1993C14.2416 47.519 14.2749 47.5567 14.2749 47.6037V48.9018ZM18.4434 48.0162C18.4434 48.0713 18.4033 48.117 18.3529 48.117H17.2334C17.183 48.117 17.1418 48.0713 17.1418 48.0162V46.4548C17.1418 46.3983 17.183 46.354 17.2334 46.354H18.3529C18.4033 46.354 18.4434 46.3983 18.4434 46.4548V48.0162ZM22.6074 47.3094C22.6074 47.3753 22.5615 47.4277 22.5043 47.4277H21.2312C21.1739 47.4277 21.1281 47.3753 21.1281 47.3094V45.4806C21.1281 45.4147 21.1739 45.3623 21.2312 45.3623H22.5043C22.5615 45.3623 22.6074 45.4147 22.6074 45.4806V47.3094ZM26.4585 46.7813C26.4585 46.8539 26.407 46.913 26.3439 46.913H24.9391C24.8761 46.913 24.8246 46.8539 24.8246 46.7813V44.7375C24.8246 44.6649 24.8761 44.6058 24.9391 44.6058H26.3439C26.407 44.6058 26.4585 44.6649 26.4585 44.7375V46.7813ZM30.5698 46.3298C30.5698 46.4091 30.5125 46.4736 30.4426 46.4736H28.8705C28.8006 46.4736 28.7422 46.4091 28.7422 46.3298V44.1059C28.7422 44.0266 28.7995 43.9621 28.8705 43.9621H30.4426C30.5125 43.9621 30.5698 44.0266 30.5698 44.1059V46.3298ZM35.1348 45.8971C35.1348 45.9831 35.0718 46.053 34.995 46.053H33.2694C33.1914 46.053 33.1284 45.9831 33.1284 45.8971V43.4905C33.1284 43.4045 33.1914 43.3346 33.2694 43.3346H34.995C35.0718 43.3346 35.1348 43.4045 35.1348 43.4905V45.8971ZM40.3518 45.5477C40.3518 45.6391 40.2853 45.713 40.2028 45.713H38.3683C38.2858 45.713 38.2194 45.6391 38.2194 45.5477V42.9892C38.2194 42.8979 38.2858 42.824 38.3683 42.824H40.2028C40.2853 42.824 40.3518 42.8979 40.3518 42.9892V45.5477ZM45.7406 45.2965C45.7406 45.3932 45.6707 45.4712 45.5836 45.4712H43.6495C43.5635 45.4712 43.4925 45.3919 43.4925 45.2965V42.5996C43.4925 42.5028 43.5635 42.4249 43.6495 42.4249H45.5836C45.6707 42.4249 45.7406 42.5028 45.7406 42.5996V45.2965ZM51.008 45.1809C51.008 45.2817 50.9347 45.3637 50.8442 45.3637H48.8275C48.737 45.3637 48.6636 45.2817 48.6636 45.1809V42.3684C48.6636 42.269 48.737 42.187 48.8275 42.187H50.8442C50.9347 42.187 51.008 42.269 51.008 42.3684V45.1809ZM56.3888 45.1204C56.3888 45.2212 56.3144 45.3032 56.2238 45.3032H54.1877C54.096 45.3032 54.0215 45.2212 54.0215 45.1204V42.2811C54.0215 42.1803 54.096 42.097 54.1877 42.097H56.2238C56.3144 42.097 56.3888 42.1803 56.3888 42.2811V45.1204ZM61.3904 45.1581C61.3904 45.2602 61.3159 45.3422 61.2254 45.3422H59.1915C59.0999 45.3422 59.0265 45.2602 59.0265 45.1581V42.3227C59.0265 42.2206 59.0999 42.1387 59.1915 42.1387H61.2254C61.3159 42.1387 61.3904 42.2206 61.3904 42.3227V45.1581ZM66.8205 45.2803C66.8205 45.3771 66.7495 45.4564 66.6624 45.4564H64.7042C64.6159 45.4564 64.5449 45.3771 64.5449 45.2803V42.5498C64.5449 42.4517 64.6159 42.3725 64.7042 42.3725H66.6624C66.7495 42.3725 66.8205 42.4517 66.8205 42.5498V45.2803ZM71.892 45.5276C71.892 45.6217 71.8232 45.6983 71.7373 45.6983H69.8421C69.7573 45.6983 69.6885 45.6217 69.6885 45.5276V42.8831C69.6885 42.789 69.7573 42.7124 69.8421 42.7124H71.7373C71.8232 42.7124 71.892 42.789 71.892 42.8831V45.5276ZM77.2545 45.8622C77.2545 45.9482 77.1914 46.0181 77.1147 46.0181H75.3982C75.3214 46.0181 75.2584 45.9482 75.2584 45.8622V43.469C75.2584 43.383 75.3214 43.3144 75.3982 43.3144H77.1147C77.1914 43.3144 77.2545 43.383 77.2545 43.469V45.8622ZM82.2549 46.3661C82.2549 46.4467 82.1964 46.5126 82.1243 46.5126H80.5121C80.4399 46.5126 80.3814 46.4467 80.3814 46.3661V44.1193C80.3814 44.0387 80.4399 43.9729 80.5121 43.9729H82.1243C82.1964 43.9729 82.2549 44.0387 82.2549 44.1193V46.3661ZM86.357 46.8324C86.357 46.9036 86.3054 46.9614 86.2412 46.9614H84.8124C84.7482 46.9614 84.6967 46.9036 84.6967 46.8324V44.8396C84.6967 44.7684 84.7482 44.7106 84.8124 44.7106H86.2412C86.3054 44.7106 86.357 44.7684 86.357 44.8396V46.8324ZM90.2952 47.4035C90.2952 47.4666 90.2494 47.5177 90.1921 47.5177H88.9191C88.8629 47.5177 88.8159 47.4666 88.8159 47.4035V45.6284C88.8159 45.5652 88.8629 45.5128 88.9191 45.5128H90.1921C90.2494 45.5128 90.2952 45.5652 90.2952 45.6284V47.4035ZM93.9997 48.0901C93.9997 48.1452 93.9584 48.1909 93.9092 48.1909H92.7874C92.737 48.1909 92.6957 48.1452 92.6957 48.0901V46.526C92.6957 46.4696 92.737 46.4239 92.7874 46.4239H93.9092C93.9584 46.4239 93.9997 46.4696 93.9997 46.526V48.0901ZM97.4601 48.8708C97.4601 48.9165 97.428 48.9528 97.3868 48.9528H96.4873C96.446 48.9528 96.4139 48.9165 96.4139 48.8708V47.6144C96.4139 47.5701 96.446 47.5338 96.4873 47.5338H97.3868C97.428 47.5338 97.4601 47.5701 97.4601 47.6144V48.8708ZM101.009 49.8813C101.009 49.9136 100.985 49.9418 100.955 49.9418H100.289C100.259 49.9418 100.235 49.9136 100.235 49.8813V48.9528C100.235 48.9192 100.259 48.8923 100.289 48.8923H100.955C100.985 48.8923 101.009 48.9192 101.009 48.9528V49.8813Z" fill="black"/>
</g>
<mask id="mask5_120_8390" style="mask-type:luminance" maskUnits="userSpaceOnUse" x="6" y="62" width="98" height="16">
<path d="M6.24255 62.608H103.758V77.6083H6.24255V62.608Z" fill="white"/>
</mask>
<g mask="url(#mask5_120_8390)">
<path d="M103.552 67.7734C103.554 66.8811 103.555 65.9969 103.555 65.1262C95.1386 63.7018 76.3228 62.7101 54.4535 62.7101C33.4801 62.7101 15.3141 63.6225 6.43848 64.9528C6.43848 66.0144 6.43848 67.0975 6.43848 68.1899C16.1414 66.8999 32.4672 66.0077 51.3208 65.8626V66.439C32.4684 66.5842 16.1414 67.4764 6.43848 68.7651C6.43848 69.2743 6.43848 69.785 6.43848 70.2969C6.43848 72.3542 6.43848 74.4209 6.43848 76.4258C18.8181 77.1541 35.5999 77.6002 54.0788 77.6002C73.4777 77.6002 91.0056 77.1084 103.535 76.3156C103.54 74.3806 103.544 72.3905 103.548 70.4085C103.549 69.7191 103.55 69.0338 103.551 68.3498C93.0543 67.2211 77.0734 66.4807 59.0437 66.4229V65.8464C77.0722 65.9042 93.0543 66.6446 103.552 67.7734ZM99.7941 65.532C99.7941 65.4218 99.8823 65.3318 99.99 65.3318H100.894C101.002 65.3318 101.09 65.4218 101.09 65.532V66.7924C101.09 66.9026 101.002 66.9913 100.894 66.9913H99.99C99.8823 66.9913 99.7941 66.9026 99.7941 66.7924V65.532ZM92.816 64.8816C92.816 64.7714 92.9111 64.6814 93.0291 64.6814H94.0134C94.1302 64.6814 94.2253 64.7714 94.2253 64.8816V66.1421C94.2253 66.2523 94.1302 66.3409 94.0134 66.3409H93.0291C92.9111 66.3409 92.816 66.2523 92.816 66.1421V64.8816ZM84.7115 64.418C84.7115 64.2998 84.8123 64.2044 84.9384 64.2044H85.9902C86.1163 64.2044 86.2183 64.2998 86.2183 64.418V65.7645C86.2183 65.8814 86.1163 65.9781 85.9902 65.9781H84.9384C84.8123 65.9781 84.7115 65.8814 84.7115 65.7645V64.418ZM74.9662 63.9101C74.9662 63.7918 75.0739 63.6964 75.208 63.6964H76.3274C76.4615 63.6964 76.5704 63.7918 76.5704 63.9101V65.2565C76.5704 65.3748 76.4615 65.4702 76.3274 65.4702H75.208C75.0739 65.4702 74.9662 65.3748 74.9662 65.2565V63.9101ZM64.6777 63.6655C64.6777 63.5338 64.7946 63.4277 64.939 63.4277H66.1456C66.2899 63.4277 66.4068 63.5338 66.4068 63.6655V65.1638C66.4068 65.2942 66.2899 65.4003 66.1456 65.4003H64.939C64.7946 65.4003 64.6777 65.2942 64.6777 65.1638V63.6655ZM10.1223 66.8274C10.1223 66.9577 10.0204 67.0639 9.89546 67.0639H8.84816C8.72327 67.0639 8.62129 66.9577 8.62129 66.8274V65.3278C8.62129 65.1974 8.72327 65.0913 8.84816 65.0913H9.89546C10.0204 65.0913 10.1223 65.1974 10.1223 65.3278V66.8274ZM18.3964 66.1985C18.3964 66.3302 18.2887 66.4363 18.1558 66.4363H17.0374C16.9034 66.4363 16.7957 66.3302 16.7957 66.1985V64.7002C16.7957 64.5699 16.9034 64.4624 17.0374 64.4624H18.1558C18.2887 64.4624 18.3964 64.5699 18.3964 64.7002V66.1985ZM26.2912 65.7282C26.2912 65.8585 26.1812 65.9647 26.0471 65.9647H24.9196C24.7844 65.9647 24.6756 65.8585 24.6756 65.7282V64.2286C24.6756 64.0982 24.7844 63.9921 24.9196 63.9921H26.0471C26.1812 63.9921 26.2912 64.0982 26.2912 64.2286V65.7282ZM34.6993 65.4138C34.6993 65.5454 34.5824 65.6516 34.4381 65.6516H33.2304C33.086 65.6516 32.9691 65.5454 32.9691 65.4138V63.9155C32.9691 63.7838 33.0871 63.6776 33.2304 63.6776H34.4381C34.5824 63.6776 34.6993 63.7838 34.6993 63.9155V65.4138ZM45.5481 65.0509C45.5481 65.1826 45.4312 65.2888 45.2868 65.2888H44.0791C43.9359 65.2888 43.819 65.1826 43.819 65.0509V63.5527C43.819 63.4223 43.9359 63.3148 44.0791 63.3148H45.2868C45.4312 63.3148 45.5481 63.4223 45.5481 63.5527V65.0509ZM14.276 76.2229H13.0007V72.2884H14.276V76.2229ZM38.6914 76.7913H36.724V71.7428H38.6914V76.7913ZM96.941 72.2884H98.2163V76.2229H96.941V72.2884ZM70.9088 71.7428H72.875V76.7899H70.9088V71.7428ZM58.0732 69.1292V76.364H52.25V68.2827H52.273C52.2661 68.1832 52.2603 68.0824 52.2603 67.9803C52.2603 66.095 53.5597 64.5672 55.1616 64.5672C56.7646 64.5672 58.064 66.095 58.064 67.9803C58.064 68.0824 58.0583 68.1832 58.0502 68.2827H58.0732V69.1292Z" fill="black"/>
</g>
<mask id="mask6_120_8390" style="mask-type:luminance" maskUnits="userSpaceOnUse" x="6" y="45" width="98" height="9">
<path d="M6.24255 45.752H103.547V53.664H6.24255V45.752Z" fill="white"/>
</mask>
<g mask="url(#mask6_120_8390)">
<path d="M54.9886 45.9872C32.7388 46.0248 13.812 48.6007 6.43738 52.2074C6.43738 52.593 6.43738 53.0714 6.43738 53.6223C16.1838 50.6285 34.0818 48.6222 54.5544 48.6222C54.6999 48.6222 54.8442 48.6236 54.9886 48.6236C55.1341 48.6236 55.2785 48.6222 55.424 48.6222C75.8966 48.6222 93.7934 50.6285 103.54 53.6223C103.54 53.0714 103.54 52.593 103.54 52.2074C96.1664 48.6007 77.2384 46.0248 54.9886 45.9872Z" fill="black"/>
</g>
<path d="M30.7714 82.4922H35.8634V83.6263H30.7714V82.4922ZM33.558 87.679V88.539C33.558 88.84 33.4939 89.0658 33.3655 89.2163C33.2372 89.3641 33.0688 89.4367 32.8614 89.4367C32.6322 89.4367 32.3962 89.3265 32.1555 89.1034C31.9138 88.8777 31.7064 88.6062 31.5322 88.2864C31.3603 87.9639 31.2755 87.6548 31.2755 87.3565C31.2755 87.12 31.3363 86.9252 31.4589 86.7707C31.5838 86.6175 31.8003 86.5395 32.1097 86.5395H36.0284V87.679H33.558Z" fill="black"/>
<path d="M42.9179 82.4922V83.6263H41.4971V92.4467H40.3925V89.5818C40.1381 89.7753 39.8333 89.95 39.4758 90.1032C39.1206 90.2577 38.7116 90.3343 38.2475 90.3343C37.4282 90.3343 36.7671 90.0118 36.2629 89.3668C35.7588 88.7218 35.4425 87.8658 35.3142 86.7975C35.8791 86.6578 36.2973 86.4629 36.57 86.2117C36.8416 85.9617 36.9779 85.6016 36.9779 85.1313C36.9779 84.8343 36.9252 84.5588 36.8221 84.3035C36.7178 84.0455 36.6021 83.8198 36.4738 83.6263H34.7963V82.4922H42.9179ZM36.5563 87.6307C36.7304 88.1547 36.9573 88.5471 37.2392 88.8078C37.5199 89.0658 37.8831 89.1948 38.33 89.1948C38.7849 89.1948 39.1802 89.0846 39.5171 88.8615C39.8563 88.6358 40.1473 88.3697 40.3925 88.0607V83.6263H37.6746C37.9404 84.1826 38.0733 84.7483 38.0733 85.3248C38.0733 86.475 37.5669 87.2437 36.5563 87.6307Z" fill="black"/>
<path d="M45.0294 83.6263V92.4467H43.9248V83.6263H42.7102V82.4922H46.4365V83.6263H45.0294Z" fill="black"/>
<path d="M54.3658 82.4922V83.6263H52.945V92.4467H51.8404V89.5818C51.586 89.7753 51.2812 89.95 50.9237 90.1032C50.5685 90.2577 50.1595 90.3343 49.6954 90.3343C48.8761 90.3343 48.215 90.0118 47.7108 89.3668C47.2066 88.7218 46.8904 87.8658 46.7621 86.7975C47.327 86.6578 47.7452 86.4629 48.0179 86.2117C48.2895 85.9617 48.4258 85.6016 48.4258 85.1313C48.4258 84.8343 48.3731 84.5588 48.27 84.3035C48.1657 84.0455 48.05 83.8198 47.9216 83.6263H46.2441V82.4922H54.3658ZM48.0041 87.6307C48.1783 88.1547 48.4052 88.5471 48.6871 88.8078C48.9678 89.0658 49.331 89.1948 49.7779 89.1948C50.2328 89.1948 50.6281 89.0846 50.965 88.8615C51.3041 88.6358 51.5952 88.3697 51.8404 88.0607V83.6263H49.1225C49.3883 84.1826 49.5212 84.7483 49.5212 85.3248C49.5212 86.475 49.0148 87.2437 48.0041 87.6307Z" fill="black"/>
<path d="M62.1697 83.6263V92.4467H61.0652V88.1897C60.8016 88.2864 60.5381 88.3509 60.2722 88.3832C60.0087 88.4154 59.7005 88.4315 59.3464 88.4315C58.9637 88.4315 58.5604 88.3926 58.1364 88.3133C57.7147 88.2313 57.3527 88.1305 57.0502 88.0123C56.8691 88.152 56.6652 88.281 56.436 88.3993C56.8084 88.9516 57.2472 89.5213 57.7514 90.1085C58.2579 90.6971 58.7895 91.2521 59.3464 91.7748L58.6085 92.6402C58.0975 92.1174 57.6162 91.5893 57.1647 91.0545C56.7156 90.5211 56.318 90.0225 55.9731 89.5603C55.627 89.0953 55.3543 88.6922 55.1527 88.3509C54.9533 88.0177 54.8284 87.757 54.7768 87.5662C54.7276 87.3727 54.7035 87.1845 54.7035 87.0018C54.7035 86.8016 54.77 86.6121 54.9052 86.432C55.0427 86.2493 55.2672 86.1579 55.5789 86.1579C55.8046 86.1579 56.0017 86.2197 56.1702 86.3407C56.3375 86.4629 56.491 86.6309 56.6285 86.8459C56.821 86.6417 56.9505 86.3823 57.0181 86.0665C57.0845 85.7521 57.1189 85.435 57.1189 85.1152C57.1189 84.7967 57.0971 84.5105 57.0547 84.2552C57.0146 83.9972 56.9642 83.7875 56.9035 83.6263H54.1581V82.4922H63.5906V83.6263H62.1697ZM59.1952 87.292C59.5492 87.292 59.8712 87.2705 60.1622 87.2275C60.4556 87.1845 60.7558 87.1147 61.0652 87.0179V83.6263H57.9943C58.0585 83.809 58.1112 84.024 58.1547 84.2713C58.2006 84.5158 58.2235 84.7967 58.2235 85.1152C58.2235 85.564 58.18 85.9537 58.0952 86.2869C58.0092 86.6175 57.8889 86.8929 57.7331 87.1147C58.2063 87.2329 58.6933 87.292 59.1952 87.292Z" fill="black"/>
<path d="M65.701 83.6263V92.4467H64.5964V83.6263H63.3818V82.4922H67.1081V83.6263H65.701Z" fill="black"/>
<path d="M74.4645 83.6263V92.4467H73.36V89.5657C73.0941 89.7699 72.779 89.95 72.4158 90.1032C72.0514 90.2577 71.6194 90.3343 71.1187 90.3343C70.3453 90.3343 69.6887 90.0763 69.1479 89.5603C68.607 89.0416 68.2404 88.2851 68.0479 87.292C68.9118 87.0811 69.5191 86.7854 69.8675 86.4052C70.2181 86.0262 70.3945 85.5478 70.3945 84.97C70.3945 84.4473 70.2868 84.0482 70.0737 83.7714C69.8594 83.4919 69.5844 83.3522 69.2487 83.3522C69.0218 83.3522 68.8362 83.4167 68.6895 83.5457C68.5429 83.6747 68.4695 83.8614 68.4695 84.1047C68.4695 84.6502 68.8385 84.97 69.5787 85.0668L69.4687 86.1902C68.8752 86.0934 68.4065 85.8824 68.0616 85.5559C67.7156 85.2307 67.5437 84.7577 67.5437 84.1369C67.5437 83.543 67.7087 83.0928 68.0387 82.7878C68.371 82.4841 68.7789 82.3309 69.2625 82.3309C69.6348 82.3309 69.9923 82.425 70.335 82.6104C70.6764 82.7972 70.956 83.0834 71.1737 83.4704C71.3937 83.8547 71.5037 84.3438 71.5037 84.9378C71.5037 85.7306 71.3204 86.3716 70.9537 86.862C70.5893 87.3538 70.0714 87.7529 69.4 88.0607C69.6073 88.445 69.8422 88.7298 70.1058 88.9153C70.3716 89.1021 70.736 89.1948 71.2012 89.1948C71.6744 89.1948 72.0789 89.09 72.4158 88.8777C72.7515 88.6627 73.0666 88.3858 73.36 88.0445V83.6263H72.237V82.4922H75.8716V83.6263H74.4645Z" fill="black"/>
<path d="M73.1503 82.605C72.9944 82.2288 72.8775 81.8713 72.7973 81.53C72.7148 81.1901 72.6736 80.8367 72.6736 80.4712C72.6736 79.7912 72.8649 79.2268 73.2465 78.778C73.6292 78.3306 74.1609 78.1062 74.8415 78.1062C75.3892 78.1062 75.843 78.2593 76.2073 78.563C76.5706 78.864 76.8834 79.3397 77.1469 79.9874C77.4128 80.6324 77.6625 81.4682 77.8986 82.4922H79.4019V83.6263H77.9948V92.4467H76.8903V83.6263H75.6757V82.4922H76.8628C76.6084 81.3822 76.3425 80.5625 76.0653 80.0358C75.7868 79.5063 75.3984 79.2403 74.8965 79.2403C74.5333 79.2403 74.2571 79.372 74.0669 79.6327C73.8744 79.8947 73.7782 80.2548 73.7782 80.713C73.7782 81.0758 73.824 81.4037 73.9157 81.6967C74.0073 81.9909 74.1162 82.2933 74.2411 82.605H73.1503Z" fill="black"/>
</svg>
