<svg width="110" height="129" viewBox="0 0 110 129" fill="none" xmlns="http://www.w3.org/2000/svg">
<mask id="mask0_124_8744" style="mask-type:luminance" maskUnits="userSpaceOnUse" x="103" y="54" width="1" height="1">
<path d="M103.547 54.352H103.758V54.696H103.547V54.352Z" fill="white"/>
</mask>
<g mask="url(#mask0_124_8744)">
<path d="M103.548 54.6839C103.548 54.6436 103.548 54.6046 103.547 54.5657C103.547 54.6046 103.548 54.6436 103.548 54.6839Z" fill="black" fill-opacity="0.6"/>
</g>
<path d="M47.8536 61.2213V60.1476L47.6818 59.9662V51.553L47.8536 51.3716V50.2966L48.0049 50.1367V49.1262C47.4091 49.1369 46.8155 49.1503 46.2266 49.1651V50.1367L46.3778 50.2966V51.3608L46.56 51.553H46.5497V59.9662H46.56L46.3778 60.1583V61.2213L46.2266 61.3825V62.4414C46.8155 62.4347 47.4091 62.4279 48.0049 62.4226V61.3825L47.8536 61.2213Z" fill="black"/>
<path d="M42.2736 61.357V60.2833L42.1017 60.1019V51.6941L42.2736 51.5127V50.439L42.4248 50.2791V49.2874C41.829 49.3116 41.2354 49.3371 40.6465 49.364V50.2791L40.7977 50.439V51.5019L40.9799 51.6941H40.9696V60.1019H40.9799L40.7977 60.2941V61.357L40.6465 61.5169V62.5287C41.2354 62.518 41.829 62.5059 42.4248 62.4965V61.5169L42.2736 61.357Z" fill="black"/>
<path d="M37.0158 61.4591V60.4016L36.8439 60.2228V51.9427L37.0158 51.7639V50.7064L37.1682 50.5478V49.5454C36.57 49.5817 35.9776 49.6193 35.3887 49.6583V50.5478L35.5411 50.7064V51.7532L35.7221 51.9413H35.7118V60.2228H35.7221L35.5411 60.4123V61.4591L35.3887 61.6163V62.6577C35.9776 62.6403 36.57 62.6241 37.1682 62.608V61.6163L37.0158 61.4591Z" fill="black"/>
<path d="M53.1095 61.2212V60.1476L52.9376 59.9662V51.553L53.1095 51.3716V50.2966L53.2619 50.1367V49.0711C52.6661 49.0724 52.0737 49.0751 51.4824 49.0791V50.1367L51.6337 50.2966V51.3608L51.8159 51.553H51.8055V59.9662H51.8159L51.6337 60.1583V61.2212L51.4824 61.3825V62.3997C52.0725 62.397 52.6661 62.3957 53.2619 62.3943V61.3825L53.1095 61.2212Z" fill="black"/>
<path d="M32.3263 61.6875V60.6394L32.1544 60.462V52.2544L32.3263 52.077V51.0289L32.4776 50.873V49.8692C31.8794 49.9163 31.2859 49.966 30.6992 50.0157V50.873L30.8505 51.0289V52.0663L31.0327 52.2531H31.0223V60.462H31.0327L30.8505 60.6502V61.6875L30.6992 61.8434V62.8122C31.2859 62.7907 31.8794 62.7692 32.4776 62.7491V61.8434L32.3263 61.6875Z" fill="black"/>
<path d="M28.3497 61.8972V60.8598L28.1779 60.6851V52.5621L28.3497 52.3861V51.3487L28.501 51.1942V50.2186C27.9017 50.2778 27.3082 50.3382 26.7227 50.4V51.1942L26.8739 51.3487V52.3767L27.0561 52.5621H27.0458V60.6851H27.0561L26.8739 60.8705V61.8972L26.7227 62.0517V62.9775C27.3082 62.9507 27.9017 62.9251 28.501 62.8996V62.0517L28.3497 61.8972Z" fill="black"/>
<path d="M24.3742 62.131V61.1097L24.2023 60.9377V52.9411L24.3742 52.7691V51.7478L24.5254 51.596V50.6473C23.925 50.7185 23.3314 50.7924 22.7471 50.8677V51.596L22.8983 51.7478V52.7583L23.0805 52.9411H23.0702V60.9377H23.0805L22.8983 61.1205V62.131L22.7471 62.2842V63.1791C23.3314 63.1455 23.9238 63.1146 24.5254 63.0837V62.2842L24.3742 62.131Z" fill="black"/>
<path d="M20.3986 62.4011V61.4013L20.2267 61.2333V53.4033L20.3986 53.234V52.2343L20.5498 52.0851V51.166C19.9471 51.252 19.3536 51.3407 18.7715 51.432V52.0851L18.9227 52.2343V53.2246L19.1049 53.4033H19.0946V61.2333H19.1049L18.9227 61.4121V62.4011L18.7715 62.5502V63.4223C19.3524 63.3833 19.946 63.3444 20.5498 63.3068V62.5502L20.3986 62.4011Z" fill="black"/>
<path d="M16.422 62.8123V61.8233L16.2501 61.6553V53.9086L16.422 53.7419V52.7529L16.5733 52.6051V51.7935C15.9671 51.8997 15.3736 52.0072 14.7949 52.1173V52.6051L14.9462 52.7529V53.7312L15.1284 53.9086H15.118V61.6553H15.1284L14.9462 61.8327V62.8123L14.7949 62.9601V63.7193C15.3724 63.6709 15.966 63.6239 16.5733 63.5782V62.9601L16.422 62.8123Z" fill="black"/>
<path d="M12.4464 63.0514V62.1189L12.2745 61.9603V54.6517L12.4464 54.4944V53.5619L12.5977 53.4221V52.5608C11.9869 52.6925 11.3934 52.8268 10.8193 52.9626V53.4221L10.9706 53.5619V54.485L11.1528 54.6517H11.1425V61.9603H11.1528L10.9706 62.1283V63.0514L10.8193 63.1912V64.0902C11.3911 64.0297 11.9846 63.9706 12.5977 63.9128V63.1912L12.4464 63.0514Z" fill="black"/>
<path d="M8.47003 63.644V62.7397L8.29815 62.5878V55.5117L8.47003 55.3585V54.4555L8.62128 54.3211V53.5242C8.00138 53.6949 7.40669 53.8696 6.8418 54.047V54.3211L6.99419 54.4555V55.3491L7.17638 55.5117H7.16607V62.5878H7.17638L6.99419 62.7491V63.644L6.8418 63.7784V64.5766C7.40096 64.496 7.99565 64.4167 8.62128 64.3401V63.7784L8.47003 63.644Z" fill="black"/>
<path d="M62.1464 61.2213V60.1476L62.3182 59.9662V51.553L62.1464 51.3716V50.2966L61.9951 50.1367V49.1262C62.591 49.1369 63.1845 49.1503 63.7746 49.1651V50.1367L63.6222 50.2966V51.3608L63.44 51.553H63.4503V59.9662H63.44L63.6222 60.1583V61.2213L63.7746 61.3825V62.4414C63.1845 62.4347 62.591 62.4279 61.9951 62.4226V61.3825L62.1464 61.2213Z" fill="black"/>
<path d="M67.7264 61.357V60.2833L67.8983 60.1019V51.6941L67.7264 51.5127V50.439L67.5752 50.2791V49.2874C68.171 49.3116 68.7646 49.3371 69.3535 49.364V50.2791L69.2023 50.439V51.5019L69.0201 51.6941H69.0304V60.1019H69.0201L69.2023 60.2941V61.357L69.3535 61.5169V62.5287C68.7646 62.518 68.1722 62.5059 67.5752 62.4965V61.5169L67.7264 61.357Z" fill="black"/>
<path d="M72.9835 61.4591V60.4016L73.1553 60.2228V51.9427L72.9835 51.7639V50.7064L72.8311 50.5478V49.5454C73.4292 49.5817 74.0216 49.6193 74.6105 49.6583V50.5478L74.4593 50.7064V51.7532L74.2771 51.9413H74.2874V60.2228H74.2771L74.4593 60.4123V61.4591L74.6105 61.6163V62.6577C74.0227 62.6403 73.4292 62.6241 72.8311 62.608V61.6163L72.9835 61.4591Z" fill="black"/>
<path d="M56.8907 61.2212V60.1476L57.0626 59.9662V51.553L56.8907 51.3716V50.2966L56.7383 50.1367V49.0711C57.3341 49.0724 57.9277 49.0751 58.5178 49.0791V50.1367L58.3665 50.2966V51.3608L58.1843 51.553H58.1946V59.9662H58.1843L58.3665 60.1583V61.2212L58.5178 61.3825V62.3997C57.9277 62.397 57.3341 62.3957 56.7383 62.3943V61.3825L56.8907 61.2212Z" fill="black"/>
<path d="M77.6737 61.6875V60.6394L77.8456 60.462V52.2544L77.6737 52.077V51.0289L77.5225 50.873V49.8692C78.1206 49.9163 78.7141 49.966 79.3008 50.0157V50.873L79.1495 51.0289V52.0663L78.9674 52.2531H78.9777V60.462H78.9674L79.1495 60.6502V61.6875L79.3008 61.8434V62.8122C78.7141 62.7907 78.1206 62.7692 77.5225 62.7491V61.8434L77.6737 61.6875Z" fill="black"/>
<path d="M81.6493 61.8972V60.8598L81.8212 60.6851V52.5621L81.6493 52.3861V51.3487L81.498 51.1942V50.2186C82.0973 50.2778 82.6909 50.3382 83.2764 50.4V51.1942L83.1251 51.3487V52.3767L82.9429 52.5621H82.9533V60.6851H82.9429L83.1251 60.8705V61.8972L83.2764 62.0517V62.9775C82.6909 62.9507 82.0973 62.9251 81.498 62.8996V62.0517L81.6493 61.8972Z" fill="black"/>
<path d="M85.6259 62.131V61.1097L85.7977 60.9377V52.9411L85.6259 52.7691V51.7478L85.4746 51.596V50.6473C86.0762 50.7185 86.6686 50.7924 87.2541 50.8677V51.596L87.1017 51.7478V52.7583L86.9195 52.9411H86.9298V60.9377H86.9195L87.1017 61.1205V62.131L87.2541 62.2842V63.1791C86.6697 63.1455 86.0762 63.1146 85.4746 63.0837V62.2842L85.6259 62.131Z" fill="black"/>
<path d="M89.6014 62.4011V61.4013L89.7733 61.2333V53.4033L89.6014 53.234V52.2343L89.4502 52.0851V51.166C90.0529 51.252 90.6464 51.3407 91.2297 51.432V52.0851L91.0773 52.2343V53.2233L90.8951 53.402H90.9054V61.2333H90.8951L91.0773 61.4107V62.4011L91.2297 62.5502V63.4223C90.6476 63.3833 90.054 63.3444 89.4502 63.3068V62.5502L89.6014 62.4011Z" fill="black"/>
<path d="M93.578 62.8123V61.8233L93.7499 61.6553V53.9086L93.578 53.7419V52.7529L93.4268 52.6051V51.7935C94.0329 51.8997 94.6264 52.0072 95.2062 52.1173V52.6051L95.0538 52.7529V53.7312L94.8717 53.9086H94.882V61.6553H94.8717L95.0538 61.8327V62.8123L95.2062 62.9601V63.7193C94.6276 63.6709 94.034 63.6239 93.4268 63.5782V62.9601L93.578 62.8123Z" fill="black"/>
<path d="M97.5536 63.0514V62.1189L97.7255 61.9603V54.6517L97.5536 54.4944V53.5619L97.4023 53.4221V52.5608C98.0131 52.6925 98.6066 52.8268 99.1818 52.9626V53.4221L99.0294 53.5619V54.485L98.8484 54.6517H98.8576V61.9603H98.8484L99.0294 62.1283V63.0514L99.1818 63.1912V64.0902C98.6089 64.0297 98.0154 63.9706 97.4023 63.9128V63.1912L97.5536 63.0514Z" fill="black"/>
<path d="M101.53 63.644V62.7397L101.702 62.5878V55.5117L101.53 55.3585V54.4555L101.379 54.3211V53.5242C101.999 53.6949 102.593 53.8696 103.158 54.047V54.3211L103.006 54.4555V55.3491L102.825 55.5117H102.834V62.5878H102.825L103.006 62.7491V63.644L103.158 63.7784V64.5766C102.599 64.496 102.006 64.4167 101.379 64.3401V63.7784L101.53 63.644Z" fill="black"/>
<mask id="mask1_124_8744" style="mask-type:luminance" maskUnits="userSpaceOnUse" x="6" y="39" width="98" height="12">
<path d="M6.24219 39.56H103.546V50.224H6.24219V39.56Z" fill="white"/>
</mask>
<g mask="url(#mask1_124_8744)">
<path d="M103.521 49.2444C103.517 48.9273 103.514 48.6478 103.509 48.4126C95.4426 43.215 76.9798 39.5815 55.4896 39.5815C33.0233 39.5815 13.8661 43.5536 6.43652 49.1302C6.43652 49.3653 6.43652 49.622 6.43652 49.8975C13.8661 44.7979 33.0233 41.1671 55.4896 41.1671C76.848 41.1671 95.2145 44.4486 103.358 49.153C103.359 49.1544 103.36 49.153 103.361 49.1544C103.418 49.1866 103.471 49.2175 103.521 49.2444Z" fill="black"/>
</g>
<mask id="mask2_124_8744" style="mask-type:luminance" maskUnits="userSpaceOnUse" x="103" y="54" width="1" height="5">
<path d="M103.547 54.352H103.758V58.136H103.547V54.352Z" fill="white"/>
</mask>
<g mask="url(#mask2_124_8744)">
<path d="M103.556 58.0755C103.555 56.8326 103.554 55.6608 103.551 54.5818C103.553 55.6501 103.555 56.8218 103.556 58.0755Z" fill="black" fill-opacity="0.6"/>
</g>
<mask id="mask3_124_8744" style="mask-type:luminance" maskUnits="userSpaceOnUse" x="55" y="32" width="5" height="8">
<path d="M55.4404 32.4368H59.8404V39.904H55.4404V32.4368Z" fill="white"/>
</mask>
<g mask="url(#mask3_124_8744)">
<path fill-rule="evenodd" clip-rule="evenodd" d="M59.6224 33.1288C59.0105 32.8748 58.386 32.9595 57.7742 33.1006C57.3296 33.2 56.8861 33.2565 56.4427 33.1006C56.2983 33.0442 56.1906 32.9877 56.1906 32.762C56.178 32.551 56.0463 32.4381 55.8538 32.4516C55.6739 32.4663 55.5787 32.5927 55.5661 32.7902C55.5547 32.8748 55.5547 32.9595 55.5547 33.0442C55.5547 33.8974 55.5558 34.7507 55.5604 35.604V39.7024H55.9775V35.6336C56.4461 35.8472 57.1371 35.9077 57.5828 35.7975C57.8223 35.7545 58.0618 35.7128 58.3024 35.6698C58.794 35.5852 59.2867 35.6564 59.7782 35.8539C59.7782 34.9509 59.7782 34.0896 59.7782 33.2135C59.7186 33.1852 59.6705 33.157 59.6224 33.1288Z" fill="black"/>
</g>
<mask id="mask4_124_8744" style="mask-type:luminance" maskUnits="userSpaceOnUse" x="6" y="41" width="98" height="12">
<path d="M6.24219 41.28H103.546V52.288H6.24219V41.28Z" fill="white"/>
</mask>
<g mask="url(#mask4_124_8744)">
<path d="M103.509 49.7295C103.512 49.665 103.497 49.5642 103.481 49.489C103.459 49.4487 103.481 49.489 103.387 49.4151C95.32 44.6636 76.856 41.3418 55.3659 41.3418C33.021 41.3418 13.952 44.9337 6.43652 49.9902V51.9937C6.43652 52.0085 6.43652 52.0233 6.43652 52.0381C10.377 50.1111 17.6187 48.4771 26.9023 47.3685C35.0961 46.397 44.8701 45.8313 55.3659 45.8313C76.565 45.8313 94.8192 48.1345 103.052 51.4468C103.06 51.4508 103.51 51.6081 103.51 51.6269C103.515 51.6282 103.518 51.6296 103.522 51.6309C103.523 51.5261 103.523 51.3662 103.521 51.1808C103.525 50.9738 103.521 50.3221 103.509 49.7295ZM10.0081 50.052C10.0081 50.0829 9.98517 50.1084 9.95652 50.1084H9.33548C9.30684 50.1084 9.28507 50.0829 9.28507 50.052V49.1853C9.28507 49.1544 9.30684 49.1288 9.33548 49.1288H9.95652C9.98517 49.1288 10.0081 49.1544 10.0081 49.1853V50.052ZM14.274 48.9018C14.274 48.9474 14.2408 48.9851 14.1984 48.9851H13.268C13.2256 48.9851 13.1924 48.9474 13.1924 48.9018V47.6037C13.1924 47.5567 13.2256 47.519 13.268 47.519H14.1984C14.2408 47.519 14.274 47.5567 14.274 47.6037V48.9018ZM18.4426 48.0162C18.4426 48.0713 18.4025 48.117 18.352 48.117H17.2326C17.1821 48.117 17.1409 48.0713 17.1409 48.0162V46.4548C17.1409 46.3983 17.1821 46.354 17.2326 46.354H18.352C18.4025 46.354 18.4426 46.3983 18.4426 46.4548V48.0162ZM22.6065 47.3094C22.6065 47.3753 22.5607 47.4277 22.5034 47.4277H21.2304C21.1731 47.4277 21.1273 47.3753 21.1273 47.3094V45.4806C21.1273 45.4147 21.1731 45.3623 21.2304 45.3623H22.5034C22.5607 45.3623 22.6065 45.4147 22.6065 45.4806V47.3094ZM26.4577 46.7813C26.4577 46.8539 26.4061 46.913 26.3431 46.913H24.9383C24.8753 46.913 24.8237 46.8539 24.8237 46.7813V44.7375C24.8237 44.6649 24.8753 44.6058 24.9383 44.6058H26.3431C26.4061 44.6058 26.4577 44.6649 26.4577 44.7375V46.7813ZM30.5689 46.3298C30.5689 46.4091 30.5116 46.4736 30.4417 46.4736H28.8696C28.7998 46.4736 28.7413 46.4091 28.7413 46.3298V44.1059C28.7413 44.0266 28.7986 43.9621 28.8696 43.9621H30.4417C30.5116 43.9621 30.5689 44.0266 30.5689 44.1059V46.3298ZM35.1339 45.8971C35.1339 45.9831 35.0709 46.053 34.9941 46.053H33.2685C33.1906 46.053 33.1276 45.9831 33.1276 45.8971V43.4905C33.1276 43.4045 33.1906 43.3346 33.2685 43.3346H34.9941C35.0709 43.3346 35.1339 43.4045 35.1339 43.4905V45.8971ZM40.3509 45.5477C40.3509 45.6391 40.2844 45.713 40.2019 45.713H38.3675C38.285 45.713 38.2185 45.6391 38.2185 45.5477V42.9892C38.2185 42.8979 38.285 42.824 38.3675 42.824H40.2019C40.2844 42.824 40.3509 42.8979 40.3509 42.9892V45.5477ZM45.7398 45.2965C45.7398 45.3932 45.6699 45.4712 45.5828 45.4712H43.6486C43.5627 45.4712 43.4916 45.3919 43.4916 45.2965V42.5996C43.4916 42.5028 43.5627 42.4249 43.6486 42.4249H45.5828C45.6699 42.4249 45.7398 42.5028 45.7398 42.5996V45.2965ZM51.0072 45.1809C51.0072 45.2817 50.9338 45.3637 50.8433 45.3637H48.8266C48.7361 45.3637 48.6628 45.2817 48.6628 45.1809V42.3684C48.6628 42.269 48.7361 42.187 48.8266 42.187H50.8433C50.9338 42.187 51.0072 42.269 51.0072 42.3684V45.1809ZM56.388 45.1204C56.388 45.2212 56.3135 45.3032 56.223 45.3032H54.1868C54.0952 45.3032 54.0207 45.2212 54.0207 45.1204V42.2811C54.0207 42.1803 54.0952 42.097 54.1868 42.097H56.223C56.3135 42.097 56.388 42.1803 56.388 42.2811V45.1204ZM61.3895 45.1581C61.3895 45.2602 61.3151 45.3422 61.2245 45.3422H59.1907C59.099 45.3422 59.0257 45.2602 59.0257 45.1581V42.3227C59.0257 42.2206 59.099 42.1387 59.1907 42.1387H61.2245C61.3151 42.1387 61.3895 42.2206 61.3895 42.3227V45.1581ZM66.8197 45.2803C66.8197 45.3771 66.7486 45.4564 66.6615 45.4564H64.7033C64.6151 45.4564 64.544 45.3771 64.544 45.2803V42.5498C64.544 42.4517 64.6151 42.3725 64.7033 42.3725H66.6615C66.7486 42.3725 66.8197 42.4517 66.8197 42.5498V45.2803ZM71.8911 45.5276C71.8911 45.6217 71.8224 45.6983 71.7364 45.6983H69.8412C69.7564 45.6983 69.6877 45.6217 69.6877 45.5276V42.8831C69.6877 42.789 69.7564 42.7124 69.8412 42.7124H71.7364C71.8224 42.7124 71.8911 42.789 71.8911 42.8831V45.5276ZM77.2536 45.8622C77.2536 45.9482 77.1906 46.0181 77.1138 46.0181H75.3974C75.3206 46.0181 75.2576 45.9482 75.2576 45.8622V43.469C75.2576 43.383 75.3206 43.3144 75.3974 43.3144H77.1138C77.1906 43.3144 77.2536 43.383 77.2536 43.469V45.8622ZM82.254 46.3661C82.254 46.4467 82.1956 46.5126 82.1234 46.5126H80.5112C80.439 46.5126 80.3806 46.4467 80.3806 46.3661V44.1193C80.3806 44.0387 80.439 43.9729 80.5112 43.9729H82.1234C82.1956 43.9729 82.254 44.0387 82.254 44.1193V46.3661ZM86.3561 46.8324C86.3561 46.9036 86.3046 46.9614 86.2404 46.9614H84.8115C84.7474 46.9614 84.6958 46.9036 84.6958 46.8324V44.8396C84.6958 44.7684 84.7474 44.7106 84.8115 44.7106H86.2404C86.3046 44.7106 86.3561 44.7684 86.3561 44.8396V46.8324ZM90.2943 47.4035C90.2943 47.4666 90.2485 47.5177 90.1912 47.5177H88.9182C88.8621 47.5177 88.8151 47.4666 88.8151 47.4035V45.6284C88.8151 45.5652 88.8621 45.5128 88.9182 45.5128H90.1912C90.2485 45.5128 90.2943 45.5652 90.2943 45.6284V47.4035ZM93.9988 48.0901C93.9988 48.1452 93.9576 48.1909 93.9083 48.1909H92.7865C92.7361 48.1909 92.6949 48.1452 92.6949 48.0901V46.526C92.6949 46.4696 92.7361 46.4239 92.7865 46.4239H93.9083C93.9576 46.4239 93.9988 46.4696 93.9988 46.526V48.0901ZM97.4592 48.8708C97.4592 48.9165 97.4272 48.9528 97.3859 48.9528H96.4864C96.4452 48.9528 96.4131 48.9165 96.4131 48.8708V47.6144C96.4131 47.5701 96.4452 47.5338 96.4864 47.5338H97.3859C97.4272 47.5338 97.4592 47.5701 97.4592 47.6144V48.8708ZM101.008 49.8813C101.008 49.9136 100.984 49.9418 100.954 49.9418H100.288C100.259 49.9418 100.234 49.9136 100.234 49.8813V48.9528C100.234 48.9192 100.259 48.8923 100.288 48.8923H100.954C100.984 48.8923 101.008 48.9192 101.008 48.9528V49.8813Z" fill="black"/>
</g>
<mask id="mask5_124_8744" style="mask-type:luminance" maskUnits="userSpaceOnUse" x="6" y="62" width="98" height="16">
<path d="M6.24219 62.608H103.757V77.6083H6.24219V62.608Z" fill="white"/>
</mask>
<g mask="url(#mask5_124_8744)">
<path d="M103.552 67.7734C103.554 66.8811 103.555 65.9969 103.555 65.1262C95.1386 63.7018 76.3228 62.7101 54.4535 62.7101C33.4801 62.7101 15.3141 63.6225 6.43848 64.9528C6.43848 66.0144 6.43848 67.0975 6.43848 68.1899C16.1414 66.8999 32.4672 66.0077 51.3208 65.8626V66.439C32.4684 66.5842 16.1414 67.4764 6.43848 68.7651C6.43848 69.2743 6.43848 69.785 6.43848 70.2969C6.43848 72.3542 6.43848 74.4209 6.43848 76.4258C18.8181 77.1541 35.5999 77.6002 54.0788 77.6002C73.4777 77.6002 91.0056 77.1084 103.535 76.3156C103.54 74.3806 103.544 72.3905 103.548 70.4085C103.549 69.7191 103.55 69.0338 103.551 68.3498C93.0543 67.2211 77.0734 66.4807 59.0437 66.4229V65.8464C77.0722 65.9042 93.0543 66.6446 103.552 67.7734ZM99.7941 65.532C99.7941 65.4218 99.8823 65.3318 99.99 65.3318H100.894C101.002 65.3318 101.09 65.4218 101.09 65.532V66.7924C101.09 66.9026 101.002 66.9913 100.894 66.9913H99.99C99.8823 66.9913 99.7941 66.9026 99.7941 66.7924V65.532ZM92.816 64.8816C92.816 64.7714 92.9111 64.6814 93.0291 64.6814H94.0134C94.1302 64.6814 94.2253 64.7714 94.2253 64.8816V66.1421C94.2253 66.2523 94.1302 66.3409 94.0134 66.3409H93.0291C92.9111 66.3409 92.816 66.2523 92.816 66.1421V64.8816ZM84.7115 64.418C84.7115 64.2998 84.8123 64.2044 84.9384 64.2044H85.9902C86.1163 64.2044 86.2183 64.2998 86.2183 64.418V65.7645C86.2183 65.8814 86.1163 65.9781 85.9902 65.9781H84.9384C84.8123 65.9781 84.7115 65.8814 84.7115 65.7645V64.418ZM74.9662 63.9101C74.9662 63.7918 75.0739 63.6964 75.208 63.6964H76.3274C76.4615 63.6964 76.5704 63.7918 76.5704 63.9101V65.2565C76.5704 65.3748 76.4615 65.4702 76.3274 65.4702H75.208C75.0739 65.4702 74.9662 65.3748 74.9662 65.2565V63.9101ZM64.6777 63.6655C64.6777 63.5338 64.7946 63.4277 64.939 63.4277H66.1456C66.2899 63.4277 66.4068 63.5338 66.4068 63.6655V65.1638C66.4068 65.2942 66.2899 65.4003 66.1456 65.4003H64.939C64.7946 65.4003 64.6777 65.2942 64.6777 65.1638V63.6655ZM10.1223 66.8274C10.1223 66.9577 10.0204 67.0639 9.89546 67.0639H8.84816C8.72327 67.0639 8.62129 66.9577 8.62129 66.8274V65.3278C8.62129 65.1974 8.72327 65.0913 8.84816 65.0913H9.89546C10.0204 65.0913 10.1223 65.1974 10.1223 65.3278V66.8274ZM18.3964 66.1985C18.3964 66.3302 18.2887 66.4363 18.1558 66.4363H17.0374C16.9034 66.4363 16.7957 66.3302 16.7957 66.1985V64.7002C16.7957 64.5699 16.9034 64.4624 17.0374 64.4624H18.1558C18.2887 64.4624 18.3964 64.5699 18.3964 64.7002V66.1985ZM26.2912 65.7282C26.2912 65.8585 26.1812 65.9647 26.0471 65.9647H24.9196C24.7844 65.9647 24.6756 65.8585 24.6756 65.7282V64.2286C24.6756 64.0982 24.7844 63.9921 24.9196 63.9921H26.0471C26.1812 63.9921 26.2912 64.0982 26.2912 64.2286V65.7282ZM34.6993 65.4138C34.6993 65.5454 34.5824 65.6516 34.4381 65.6516H33.2304C33.086 65.6516 32.9691 65.5454 32.9691 65.4138V63.9155C32.9691 63.7838 33.0871 63.6776 33.2304 63.6776H34.4381C34.5824 63.6776 34.6993 63.7838 34.6993 63.9155V65.4138ZM45.5481 65.0509C45.5481 65.1826 45.4312 65.2888 45.2868 65.2888H44.0791C43.9359 65.2888 43.819 65.1826 43.819 65.0509V63.5527C43.819 63.4223 43.9359 63.3148 44.0791 63.3148H45.2868C45.4312 63.3148 45.5481 63.4223 45.5481 63.5527V65.0509ZM14.276 76.2229H13.0007V72.2884H14.276V76.2229ZM38.6914 76.7913H36.724V71.7428H38.6914V76.7913ZM96.941 72.2884H98.2163V76.2229H96.941V72.2884ZM70.9088 71.7428H72.875V76.7899H70.9088V71.7428ZM58.0732 69.1292V76.364H52.25V68.2827H52.273C52.2661 68.1832 52.2603 68.0824 52.2603 67.9803C52.2603 66.095 53.5597 64.5672 55.1616 64.5672C56.7646 64.5672 58.064 66.095 58.064 67.9803C58.064 68.0824 58.0583 68.1832 58.0502 68.2827H58.0732V69.1292Z" fill="black"/>
</g>
<mask id="mask6_124_8744" style="mask-type:luminance" maskUnits="userSpaceOnUse" x="6" y="45" width="98" height="9">
<path d="M6.24219 45.752H103.546V53.664H6.24219V45.752Z" fill="white"/>
</mask>
<g mask="url(#mask6_124_8744)">
<path d="M54.9878 45.9872C32.738 46.0248 13.8111 48.6007 6.43652 52.2074C6.43652 52.593 6.43652 53.0714 6.43652 53.6223C16.183 50.6285 34.0809 48.6222 54.5535 48.6222C54.699 48.6222 54.8434 48.6236 54.9878 48.6236C55.1333 48.6236 55.2777 48.6222 55.4232 48.6222C75.8958 48.6222 93.7926 50.6285 103.539 53.6223C103.539 53.0714 103.539 52.593 103.539 52.2074C96.1656 48.6007 77.2376 46.0248 54.9878 45.9872Z" fill="black"/>
</g>
<path d="M30.7715 82.4922H35.8636V83.6263H30.7715V82.4922ZM33.5582 87.679V88.539C33.5582 88.84 33.494 89.0658 33.3657 89.2163C33.2373 89.3641 33.0689 89.4367 32.8615 89.4367C32.6323 89.4367 32.3963 89.3265 32.1557 89.1034C31.9139 88.8777 31.7065 88.6062 31.5323 88.2864C31.3604 87.9639 31.2757 87.6548 31.2757 87.3565C31.2757 87.12 31.3364 86.9252 31.459 86.7707C31.5839 86.6175 31.8004 86.5395 32.1098 86.5395H36.0286V87.679H33.5582Z" fill="black"/>
<path d="M42.9176 82.4922V83.6263H41.4967V92.4467H40.3921V89.5818C40.1378 89.7753 39.833 89.95 39.4755 90.1032C39.1203 90.2577 38.7112 90.3343 38.2471 90.3343C37.4279 90.3343 36.7667 90.0118 36.2626 89.3668C35.7584 88.7218 35.4421 87.8658 35.3138 86.7975C35.8787 86.6578 36.2969 86.4629 36.5696 86.2117C36.8412 85.9617 36.9776 85.6016 36.9776 85.1313C36.9776 84.8343 36.9249 84.5588 36.8217 84.3035C36.7175 84.0455 36.6017 83.8198 36.4734 83.6263H34.7959V82.4922H42.9176ZM36.5559 87.6307C36.7301 88.1547 36.9569 88.5471 37.2388 88.8078C37.5195 89.0658 37.8828 89.1948 38.3296 89.1948C38.7845 89.1948 39.1799 89.0846 39.5167 88.8615C39.8559 88.6358 40.1469 88.3697 40.3921 88.0607V83.6263H37.6742C37.9401 84.1826 38.073 84.7483 38.073 85.3248C38.073 86.475 37.5665 87.2437 36.5559 87.6307Z" fill="black"/>
<path d="M45.0291 83.6263V92.4467H43.9245V83.6263H42.71V82.4922H46.4362V83.6263H45.0291Z" fill="black"/>
<path d="M54.3658 82.4922V83.6263H52.945V92.4467H51.8404V89.5818C51.586 89.7753 51.2812 89.95 50.9237 90.1032C50.5685 90.2577 50.1595 90.3343 49.6954 90.3343C48.8761 90.3343 48.215 90.0118 47.7108 89.3668C47.2066 88.7218 46.8904 87.8658 46.7621 86.7975C47.327 86.6578 47.7452 86.4629 48.0179 86.2117C48.2895 85.9617 48.4258 85.6016 48.4258 85.1313C48.4258 84.8343 48.3731 84.5588 48.27 84.3035C48.1657 84.0455 48.05 83.8198 47.9216 83.6263H46.2441V82.4922H54.3658ZM48.0041 87.6307C48.1783 88.1547 48.4052 88.5471 48.6871 88.8078C48.9678 89.0658 49.331 89.1948 49.7779 89.1948C50.2328 89.1948 50.6281 89.0846 50.965 88.8615C51.3041 88.6358 51.5952 88.3697 51.8404 88.0607V83.6263H49.1225C49.3883 84.1826 49.5212 84.7483 49.5212 85.3248C49.5212 86.475 49.0148 87.2437 48.0041 87.6307Z" fill="black"/>
<path d="M62.1699 83.6263V92.4467H61.0653V88.1897C60.8017 88.2864 60.5382 88.3509 60.2724 88.3832C60.0088 88.4154 59.7006 88.4315 59.3465 88.4315C58.9638 88.4315 58.5605 88.3926 58.1365 88.3133C57.7149 88.2313 57.3528 88.1305 57.0503 88.0123C56.8692 88.152 56.6653 88.281 56.4361 88.3993C56.8085 88.9516 57.2474 89.5213 57.7515 90.1085C58.258 90.6971 58.7897 91.2521 59.3465 91.7748L58.6086 92.6402C58.0976 92.1174 57.6163 91.5893 57.1649 91.0545C56.7157 90.5211 56.3181 90.0225 55.9732 89.5603C55.6272 89.0953 55.3545 88.6922 55.1528 88.3509C54.9534 88.0177 54.8285 87.757 54.777 87.5662C54.7277 87.3727 54.7036 87.1845 54.7036 87.0018C54.7036 86.8016 54.7701 86.6121 54.9053 86.432C55.0428 86.2493 55.2674 86.1579 55.579 86.1579C55.8048 86.1579 56.0018 86.2197 56.1703 86.3407C56.3376 86.4629 56.4911 86.6309 56.6286 86.8459C56.8211 86.6417 56.9506 86.3823 57.0182 86.0665C57.0847 85.7521 57.119 85.435 57.119 85.1152C57.119 84.7967 57.0973 84.5105 57.0549 84.2552C57.0148 83.9972 56.9643 83.7875 56.9036 83.6263H54.1582V82.4922H63.5907V83.6263H62.1699ZM59.1953 87.292C59.5493 87.292 59.8713 87.2705 60.1624 87.2275C60.4557 87.1845 60.7559 87.1147 61.0653 87.0179V83.6263H57.9945C58.0586 83.809 58.1113 84.024 58.1549 84.2713C58.2007 84.5158 58.2236 84.7967 58.2236 85.1152C58.2236 85.564 58.1801 85.9537 58.0953 86.2869C58.0093 86.6175 57.889 86.8929 57.7332 87.1147C58.2064 87.2329 58.6934 87.292 59.1953 87.292Z" fill="black"/>
<path d="M65.701 83.6263V92.4467H64.5964V83.6263H63.3818V82.4922H67.1081V83.6263H65.701Z" fill="black"/>
<path d="M74.4648 83.6263V92.4467H73.3602V89.5657C73.0944 89.7699 72.7793 89.95 72.416 90.1032C72.0517 90.2577 71.6197 90.3343 71.1189 90.3343C70.3455 90.3343 69.6889 90.0763 69.1481 89.5603C68.6073 89.0416 68.2406 88.2851 68.0481 87.292C68.9121 87.0811 69.5194 86.7854 69.8677 86.4052C70.2183 86.0262 70.3948 85.5478 70.3948 84.97C70.3948 84.4473 70.2871 84.0482 70.0739 83.7714C69.8597 83.4919 69.5847 83.3522 69.2489 83.3522C69.0221 83.3522 68.8364 83.4167 68.6898 83.5457C68.5431 83.6747 68.4698 83.8614 68.4698 84.1047C68.4698 84.6502 68.8387 84.97 69.5789 85.0668L69.4689 86.1902C68.8754 86.0934 68.4068 85.8824 68.0619 85.5559C67.7158 85.2307 67.5439 84.7577 67.5439 84.1369C67.5439 83.543 67.7089 83.0928 68.0389 82.7878C68.3712 82.4841 68.7792 82.3309 69.2627 82.3309C69.6351 82.3309 69.9926 82.425 70.3352 82.6104C70.6767 82.7972 70.9562 83.0834 71.1739 83.4704C71.3939 83.8547 71.5039 84.3438 71.5039 84.9378C71.5039 85.7306 71.3206 86.3716 70.9539 86.862C70.5896 87.3538 70.0717 87.7529 69.4002 88.0607C69.6076 88.445 69.8425 88.7298 70.106 88.9153C70.3719 89.1021 70.7362 89.1948 71.2014 89.1948C71.6747 89.1948 72.0792 89.09 72.416 88.8777C72.7518 88.6627 73.0669 88.3858 73.3602 88.0445V83.6263H72.2373V82.4922H75.8719V83.6263H74.4648Z" fill="black"/>
<path d="M73.1505 82.605C72.9947 82.2288 72.8778 81.8713 72.7976 81.53C72.7151 81.1901 72.6738 80.8367 72.6738 80.4712C72.6738 79.7912 72.8652 79.2268 73.2467 78.778C73.6295 78.3306 74.1611 78.1062 74.8417 78.1062C75.3895 78.1062 75.8432 78.2593 76.2076 78.563C76.5708 78.864 76.8836 79.3397 77.1472 79.9874C77.413 80.6324 77.6628 81.4682 77.8988 82.4922H79.4022V83.6263H77.9951V92.4467H76.8905V83.6263H75.6759V82.4922H76.863C76.6086 81.3822 76.3428 80.5625 76.0655 80.0358C75.7871 79.5063 75.3986 79.2403 74.8967 79.2403C74.5335 79.2403 74.2574 79.372 74.0672 79.6327C73.8747 79.8947 73.7784 80.2548 73.7784 80.713C73.7784 81.0758 73.8242 81.4037 73.9159 81.6967C74.0076 81.9909 74.1164 82.2933 74.2413 82.605H73.1505Z" fill="black"/>
</svg>
