<svg width="110" height="129" viewBox="0 0 110 129" fill="none" xmlns="http://www.w3.org/2000/svg">
<mask id="mask0_84_4175" style="mask-type:luminance" maskUnits="userSpaceOnUse" x="103" y="54" width="1" height="1">
<path d="M103.547 54.352H103.758V54.696H103.547V54.352Z" fill="white"/>
</mask>
<g mask="url(#mask0_84_4175)">
<path d="M103.548 54.6839C103.548 54.6436 103.548 54.6046 103.547 54.5657C103.547 54.6046 103.548 54.6436 103.548 54.6839Z" fill="black" fill-opacity="0.6"/>
</g>
<path d="M47.8536 61.2213V60.1476L47.6818 59.9662V51.553L47.8536 51.3716V50.2966L48.0049 50.1367V49.1262C47.4091 49.1369 46.8155 49.1503 46.2266 49.1651V50.1367L46.3778 50.2966V51.3608L46.56 51.553H46.5497V59.9662H46.56L46.3778 60.1583V61.2213L46.2266 61.3825V62.4414C46.8155 62.4347 47.4091 62.4279 48.0049 62.4226V61.3825L47.8536 61.2213Z" fill="black"/>
<path d="M42.2731 61.357V60.2833L42.1012 60.1019V51.6941L42.2731 51.5127V50.439L42.4243 50.2791V49.2874C41.8285 49.3116 41.235 49.3371 40.646 49.364V50.2791L40.7972 50.439V51.5019L40.9794 51.6941H40.9691V60.1019H40.9794L40.7972 60.2941V61.357L40.646 61.5169V62.5287C41.235 62.518 41.8285 62.5059 42.4243 62.4965V61.5169L42.2731 61.357Z" fill="black"/>
<path d="M37.0162 61.4591V60.4016L36.8444 60.2228V51.9427L37.0162 51.7639V50.7064L37.1686 50.5478V49.5454C36.5705 49.5817 35.9781 49.6193 35.3892 49.6583V50.5478L35.5416 50.7064V51.7532L35.7226 51.9413H35.7123V60.2228H35.7226L35.5416 60.4123V61.4591L35.3892 61.6163V62.6577C35.9781 62.6403 36.5705 62.6241 37.1686 62.608V61.6163L37.0162 61.4591Z" fill="black"/>
<path d="M53.1095 61.2212V60.1476L52.9376 59.9662V51.553L53.1095 51.3716V50.2966L53.2619 50.1367V49.0711C52.6661 49.0724 52.0737 49.0751 51.4824 49.0791V50.1367L51.6337 50.2966V51.3608L51.8159 51.553H51.8055V59.9662H51.8159L51.6337 60.1583V61.2212L51.4824 61.3825V62.3997C52.0725 62.397 52.6661 62.3957 53.2619 62.3943V61.3825L53.1095 61.2212Z" fill="black"/>
<path d="M32.3263 61.6875V60.6394L32.1544 60.462V52.2544L32.3263 52.077V51.0289L32.4776 50.873V49.8692C31.8794 49.9163 31.2859 49.966 30.6992 50.0157V50.873L30.8505 51.0289V52.0663L31.0327 52.2531H31.0223V60.462H31.0327L30.8505 60.6502V61.6875L30.6992 61.8434V62.8122C31.2859 62.7907 31.8794 62.7692 32.4776 62.7491V61.8434L32.3263 61.6875Z" fill="black"/>
<path d="M28.3502 61.8972V60.8598L28.1784 60.6851V52.5621L28.3502 52.3861V51.3487L28.5015 51.1942V50.2186C27.9022 50.2778 27.3087 50.3382 26.7231 50.4V51.1942L26.8744 51.3487V52.3767L27.0566 52.5621H27.0463V60.6851H27.0566L26.8744 60.8705V61.8972L26.7231 62.0517V62.9775C27.3087 62.9507 27.9022 62.9251 28.5015 62.8996V62.0517L28.3502 61.8972Z" fill="black"/>
<path d="M24.3742 62.131V61.1097L24.2023 60.9377V52.9411L24.3742 52.7691V51.7478L24.5254 51.596V50.6473C23.925 50.7185 23.3314 50.7924 22.7471 50.8677V51.596L22.8983 51.7478V52.7583L23.0805 52.9411H23.0702V60.9377H23.0805L22.8983 61.1205V62.131L22.7471 62.2842V63.1791C23.3314 63.1455 23.9238 63.1146 24.5254 63.0837V62.2842L24.3742 62.131Z" fill="black"/>
<path d="M20.3981 62.4011V61.4013L20.2262 61.2333V53.4033L20.3981 53.234V52.2343L20.5493 52.0851V51.166C19.9466 51.252 19.3531 51.3407 18.771 51.432V52.0851L18.9222 52.2343V53.2246L19.1044 53.4033H19.0941V61.2333H19.1044L18.9222 61.4121V62.4011L18.771 62.5502V63.4223C19.3519 63.3833 19.9455 63.3444 20.5493 63.3068V62.5502L20.3981 62.4011Z" fill="black"/>
<path d="M16.422 62.8123V61.8233L16.2501 61.6553V53.9086L16.422 53.7419V52.7529L16.5733 52.6051V51.7935C15.9671 51.8997 15.3736 52.0072 14.7949 52.1173V52.6051L14.9462 52.7529V53.7312L15.1284 53.9086H15.118V61.6553H15.1284L14.9462 61.8327V62.8123L14.7949 62.9601V63.7193C15.3724 63.6709 15.966 63.6239 16.5733 63.5782V62.9601L16.422 62.8123Z" fill="black"/>
<path d="M12.4459 63.0514V62.1189L12.2741 61.9603V54.6517L12.4459 54.4944V53.5619L12.5972 53.4221V52.5608C11.9865 52.6925 11.3929 52.8268 10.8188 52.9626V53.4221L10.9701 53.5619V54.485L11.1523 54.6517H11.142V61.9603H11.1523L10.9701 62.1283V63.0514L10.8188 63.1912V64.0902C11.3906 64.0297 11.9842 63.9706 12.5972 63.9128V63.1912L12.4459 63.0514Z" fill="black"/>
<path d="M8.47003 63.644V62.7397L8.29815 62.5878V55.5117L8.47003 55.3585V54.4555L8.62128 54.3211V53.5242C8.00138 53.6949 7.40669 53.8696 6.8418 54.047V54.3211L6.99419 54.4555V55.3491L7.17638 55.5117H7.16607V62.5878H7.17638L6.99419 62.7491V63.644L6.8418 63.7784V64.5766C7.40096 64.496 7.99565 64.4167 8.62128 64.3401V63.7784L8.47003 63.644Z" fill="black"/>
<path d="M62.1464 61.2213V60.1476L62.3182 59.9662V51.553L62.1464 51.3716V50.2966L61.9951 50.1367V49.1262C62.591 49.1369 63.1845 49.1503 63.7746 49.1651V50.1367L63.6222 50.2966V51.3608L63.44 51.553H63.4503V59.9662H63.44L63.6222 60.1583V61.2213L63.7746 61.3825V62.4414C63.1845 62.4347 62.591 62.4279 61.9951 62.4226V61.3825L62.1464 61.2213Z" fill="black"/>
<path d="M67.7269 61.357V60.2833L67.8988 60.1019V51.6941L67.7269 51.5127V50.439L67.5757 50.2791V49.2874C68.1715 49.3116 68.7651 49.3371 69.354 49.364V50.2791L69.2028 50.439V51.5019L69.0206 51.6941H69.0309V60.1019H69.0206L69.2028 60.2941V61.357L69.354 61.5169V62.5287C68.7651 62.518 68.1727 62.5059 67.5757 62.4965V61.5169L67.7269 61.357Z" fill="black"/>
<path d="M72.9839 61.4591V60.4016L73.1558 60.2228V51.9427L72.9839 51.7639V50.7064L72.8315 50.5478V49.5454C73.4297 49.5817 74.0221 49.6193 74.611 49.6583V50.5478L74.4598 50.7064V51.7532L74.2776 51.9413H74.2879V60.2228H74.2776L74.4598 60.4123V61.4591L74.611 61.6163V62.6577C74.0232 62.6403 73.4297 62.6241 72.8315 62.608V61.6163L72.9839 61.4591Z" fill="black"/>
<path d="M56.8907 61.2212V60.1476L57.0626 59.9662V51.553L56.8907 51.3716V50.2966L56.7383 50.1367V49.0711C57.3341 49.0724 57.9277 49.0751 58.5178 49.0791V50.1367L58.3665 50.2966V51.3608L58.1843 51.553H58.1946V59.9662H58.1843L58.3665 60.1583V61.2212L58.5178 61.3825V62.3997C57.9277 62.397 57.3341 62.3957 56.7383 62.3943V61.3825L56.8907 61.2212Z" fill="black"/>
<path d="M77.6737 61.6875V60.6394L77.8456 60.462V52.2544L77.6737 52.077V51.0289L77.5225 50.873V49.8692C78.1206 49.9163 78.7141 49.966 79.3008 50.0157V50.873L79.1495 51.0289V52.0663L78.9674 52.2531H78.9777V60.462H78.9674L79.1495 60.6502V61.6875L79.3008 61.8434V62.8122C78.7141 62.7907 78.1206 62.7692 77.5225 62.7491V61.8434L77.6737 61.6875Z" fill="black"/>
<path d="M81.6498 61.8972V60.8598L81.8217 60.6851V52.5621L81.6498 52.3861V51.3487L81.4985 51.1942V50.2186C82.0978 50.2778 82.6913 50.3382 83.2769 50.4V51.1942L83.1256 51.3487V52.3767L82.9434 52.5621H82.9537V60.6851H82.9434L83.1256 60.8705V61.8972L83.2769 62.0517V62.9775C82.6913 62.9507 82.0978 62.9251 81.4985 62.8996V62.0517L81.6498 61.8972Z" fill="black"/>
<path d="M85.6259 62.131V61.1097L85.7977 60.9377V52.9411L85.6259 52.7691V51.7478L85.4746 51.596V50.6473C86.0762 50.7185 86.6686 50.7924 87.2541 50.8677V51.596L87.1017 51.7478V52.7583L86.9195 52.9411H86.9298V60.9377H86.9195L87.1017 61.1205V62.131L87.2541 62.2842V63.1791C86.6697 63.1455 86.0762 63.1146 85.4746 63.0837V62.2842L85.6259 62.131Z" fill="black"/>
<path d="M89.6019 62.4011V61.4013L89.7738 61.2333V53.4033L89.6019 53.234V52.2343L89.4507 52.0851V51.166C90.0534 51.252 90.6469 51.3407 91.2302 51.432V52.0851L91.0778 52.2343V53.2233L90.8956 53.402H90.9059V61.2333H90.8956L91.0778 61.4107V62.4011L91.2302 62.5502V63.4223C90.6481 63.3833 90.0545 63.3444 89.4507 63.3068V62.5502L89.6019 62.4011Z" fill="black"/>
<path d="M93.578 62.8123V61.8233L93.7499 61.6553V53.9086L93.578 53.7419V52.7529L93.4268 52.6051V51.7935C94.0329 51.8997 94.6264 52.0072 95.2062 52.1173V52.6051L95.0538 52.7529V53.7312L94.8717 53.9086H94.882V61.6553H94.8717L95.0538 61.8327V62.8123L95.2062 62.9601V63.7193C94.6276 63.6709 94.034 63.6239 93.4268 63.5782V62.9601L93.578 62.8123Z" fill="black"/>
<path d="M97.5541 63.0514V62.1189L97.726 61.9603V54.6517L97.5541 54.4944V53.5619L97.4028 53.4221V52.5608C98.0136 52.6925 98.6071 52.8268 99.1823 52.9626V53.4221L99.0299 53.5619V54.485L98.8489 54.6517H98.858V61.9603H98.8489L99.0299 62.1283V63.0514L99.1823 63.1912V64.0902C98.6094 64.0297 98.0159 63.9706 97.4028 63.9128V63.1912L97.5541 63.0514Z" fill="black"/>
<path d="M101.53 63.644V62.7397L101.702 62.5878V55.5117L101.53 55.3585V54.4555L101.379 54.3211V53.5242C101.999 53.6949 102.593 53.8696 103.158 54.047V54.3211L103.006 54.4555V55.3491L102.825 55.5117H102.834V62.5878H102.825L103.006 62.7491V63.644L103.158 63.7784V64.5766C102.599 64.496 102.006 64.4167 101.379 64.3401V63.7784L101.53 63.644Z" fill="black"/>
<mask id="mask1_84_4175" style="mask-type:luminance" maskUnits="userSpaceOnUse" x="6" y="39" width="98" height="12">
<path d="M6.24268 39.56H103.547V50.224H6.24268V39.56Z" fill="white"/>
</mask>
<g mask="url(#mask1_84_4175)">
<path d="M103.522 49.2444C103.518 48.9273 103.515 48.6478 103.51 48.4126C95.4435 43.215 76.9807 39.5815 55.4906 39.5815C33.0243 39.5815 13.8671 43.5536 6.4375 49.1302C6.4375 49.3653 6.4375 49.622 6.4375 49.8975C13.8671 44.7979 33.0243 41.1671 55.4906 41.1671C76.849 41.1671 95.2155 44.4486 103.359 49.153C103.36 49.1544 103.361 49.153 103.362 49.1544C103.419 49.1866 103.472 49.2175 103.522 49.2444Z" fill="black"/>
</g>
<mask id="mask2_84_4175" style="mask-type:luminance" maskUnits="userSpaceOnUse" x="103" y="54" width="1" height="5">
<path d="M103.547 54.352H103.758V58.136H103.547V54.352Z" fill="white"/>
</mask>
<g mask="url(#mask2_84_4175)">
<path d="M103.556 58.0755C103.555 56.8326 103.554 55.6608 103.55 54.5818C103.552 55.6501 103.555 56.8218 103.556 58.0755Z" fill="black" fill-opacity="0.6"/>
</g>
<mask id="mask3_84_4175" style="mask-type:luminance" maskUnits="userSpaceOnUse" x="55" y="32" width="5" height="8">
<path d="M55.4399 32.4368H59.8399V39.904H55.4399V32.4368Z" fill="white"/>
</mask>
<g mask="url(#mask3_84_4175)">
<path fill-rule="evenodd" clip-rule="evenodd" d="M59.6224 33.1288C59.0105 32.8748 58.386 32.9595 57.7742 33.1006C57.3296 33.2 56.8861 33.2565 56.4427 33.1006C56.2983 33.0442 56.1906 32.9877 56.1906 32.762C56.178 32.551 56.0463 32.4381 55.8538 32.4516C55.6739 32.4663 55.5787 32.5927 55.5661 32.7902C55.5547 32.8748 55.5547 32.9595 55.5547 33.0442C55.5547 33.8974 55.5558 34.7507 55.5604 35.604V39.7024H55.9775V35.6336C56.4461 35.8472 57.1371 35.9077 57.5828 35.7975C57.8223 35.7545 58.0618 35.7128 58.3024 35.6698C58.794 35.5852 59.2867 35.6564 59.7782 35.8539C59.7782 34.9509 59.7782 34.0896 59.7782 33.2135C59.7186 33.1852 59.6705 33.157 59.6224 33.1288Z" fill="black"/>
</g>
<mask id="mask4_84_4175" style="mask-type:luminance" maskUnits="userSpaceOnUse" x="6" y="41" width="98" height="12">
<path d="M6.24268 41.28H103.547V52.288H6.24268V41.28Z" fill="white"/>
</mask>
<g mask="url(#mask4_84_4175)">
<path d="M103.51 49.7295C103.513 49.665 103.498 49.5642 103.482 49.489C103.46 49.4487 103.482 49.489 103.388 49.4151C95.3209 44.6636 76.857 41.3418 55.3669 41.3418C33.022 41.3418 13.953 44.9337 6.4375 49.9902V51.9937C6.4375 52.0085 6.4375 52.0233 6.4375 52.0381C10.378 50.1111 17.6197 48.4771 26.9032 47.3685C35.0971 46.397 44.871 45.8313 55.3669 45.8313C76.5659 45.8313 94.8202 48.1345 103.053 51.4468C103.061 51.4508 103.511 51.6081 103.511 51.6269C103.516 51.6282 103.519 51.6296 103.523 51.6309C103.524 51.5261 103.524 51.3662 103.522 51.1808C103.526 50.9738 103.522 50.3221 103.51 49.7295ZM10.0091 50.052C10.0091 50.0829 9.98615 50.1084 9.9575 50.1084H9.33646C9.30781 50.1084 9.28604 50.0829 9.28604 50.052V49.1853C9.28604 49.1544 9.30781 49.1288 9.33646 49.1288H9.9575C9.98615 49.1288 10.0091 49.1544 10.0091 49.1853V50.052ZM14.275 48.9018C14.275 48.9474 14.2418 48.9851 14.1994 48.9851H13.269C13.2266 48.9851 13.1933 48.9474 13.1933 48.9018V47.6037C13.1933 47.5567 13.2266 47.519 13.269 47.519H14.1994C14.2418 47.519 14.275 47.5567 14.275 47.6037V48.9018ZM18.4435 48.0162C18.4435 48.0713 18.4034 48.117 18.353 48.117H17.2335C17.1831 48.117 17.1419 48.0713 17.1419 48.0162V46.4548C17.1419 46.3983 17.1831 46.354 17.2335 46.354H18.353C18.4034 46.354 18.4435 46.3983 18.4435 46.4548V48.0162ZM22.6075 47.3094C22.6075 47.3753 22.5617 47.4277 22.5044 47.4277H21.2314C21.1741 47.4277 21.1282 47.3753 21.1282 47.3094V45.4806C21.1282 45.4147 21.1741 45.3623 21.2314 45.3623H22.5044C22.5617 45.3623 22.6075 45.4147 22.6075 45.4806V47.3094ZM26.4586 46.7813C26.4586 46.8539 26.4071 46.913 26.3441 46.913H24.9393C24.8763 46.913 24.8247 46.8539 24.8247 46.7813V44.7375C24.8247 44.6649 24.8763 44.6058 24.9393 44.6058H26.3441C26.4071 44.6058 26.4586 44.6649 26.4586 44.7375V46.7813ZM30.5699 46.3298C30.5699 46.4091 30.5126 46.4736 30.4427 46.4736H28.8706C28.8007 46.4736 28.7423 46.4091 28.7423 46.3298V44.1059C28.7423 44.0266 28.7996 43.9621 28.8706 43.9621H30.4427C30.5126 43.9621 30.5699 44.0266 30.5699 44.1059V46.3298ZM35.1349 45.8971C35.1349 45.9831 35.0719 46.053 34.9951 46.053H33.2695C33.1916 46.053 33.1285 45.9831 33.1285 45.8971V43.4905C33.1285 43.4045 33.1916 43.3346 33.2695 43.3346H34.9951C35.0719 43.3346 35.1349 43.4045 35.1349 43.4905V45.8971ZM40.3519 45.5477C40.3519 45.6391 40.2854 45.713 40.2029 45.713H38.3684C38.2859 45.713 38.2195 45.6391 38.2195 45.5477V42.9892C38.2195 42.8979 38.2859 42.824 38.3684 42.824H40.2029C40.2854 42.824 40.3519 42.8979 40.3519 42.9892V45.5477ZM45.7407 45.2965C45.7407 45.3932 45.6708 45.4712 45.5838 45.4712H43.6496C43.5636 45.4712 43.4926 45.3919 43.4926 45.2965V42.5996C43.4926 42.5028 43.5636 42.4249 43.6496 42.4249H45.5838C45.6708 42.4249 45.7407 42.5028 45.7407 42.5996V45.2965ZM51.0081 45.1809C51.0081 45.2817 50.9348 45.3637 50.8443 45.3637H48.8276C48.7371 45.3637 48.6638 45.2817 48.6638 45.1809V42.3684C48.6638 42.269 48.7371 42.187 48.8276 42.187H50.8443C50.9348 42.187 51.0081 42.269 51.0081 42.3684V45.1809ZM56.389 45.1204C56.389 45.2212 56.3145 45.3032 56.224 45.3032H54.1878C54.0961 45.3032 54.0217 45.2212 54.0217 45.1204V42.2811C54.0217 42.1803 54.0961 42.097 54.1878 42.097H56.224C56.3145 42.097 56.389 42.1803 56.389 42.2811V45.1204ZM61.3905 45.1581C61.3905 45.2602 61.316 45.3422 61.2255 45.3422H59.1917C59.1 45.3422 59.0267 45.2602 59.0267 45.1581V42.3227C59.0267 42.2206 59.1 42.1387 59.1917 42.1387H61.2255C61.316 42.1387 61.3905 42.2206 61.3905 42.3227V45.1581ZM66.8206 45.2803C66.8206 45.3771 66.7496 45.4564 66.6625 45.4564H64.7043C64.616 45.4564 64.545 45.3771 64.545 45.2803V42.5498C64.545 42.4517 64.616 42.3725 64.7043 42.3725H66.6625C66.7496 42.3725 66.8206 42.4517 66.8206 42.5498V45.2803ZM71.8921 45.5276C71.8921 45.6217 71.8233 45.6983 71.7374 45.6983H69.8422C69.7574 45.6983 69.6886 45.6217 69.6886 45.5276V42.8831C69.6886 42.789 69.7574 42.7124 69.8422 42.7124H71.7374C71.8233 42.7124 71.8921 42.789 71.8921 42.8831V45.5276ZM77.2546 45.8622C77.2546 45.9482 77.1916 46.0181 77.1148 46.0181H75.3983C75.3216 46.0181 75.2585 45.9482 75.2585 45.8622V43.469C75.2585 43.383 75.3216 43.3144 75.3983 43.3144H77.1148C77.1916 43.3144 77.2546 43.383 77.2546 43.469V45.8622ZM82.255 46.3661C82.255 46.4467 82.1966 46.5126 82.1244 46.5126H80.5122C80.44 46.5126 80.3816 46.4467 80.3816 46.3661V44.1193C80.3816 44.0387 80.44 43.9729 80.5122 43.9729H82.1244C82.1966 43.9729 82.255 44.0387 82.255 44.1193V46.3661ZM86.3571 46.8324C86.3571 46.9036 86.3055 46.9614 86.2414 46.9614H84.8125C84.7483 46.9614 84.6968 46.9036 84.6968 46.8324V44.8396C84.6968 44.7684 84.7483 44.7106 84.8125 44.7106H86.2414C86.3055 44.7106 86.3571 44.7684 86.3571 44.8396V46.8324ZM90.2953 47.4035C90.2953 47.4666 90.2495 47.5177 90.1922 47.5177H88.9192C88.863 47.5177 88.816 47.4666 88.816 47.4035V45.6284C88.816 45.5652 88.863 45.5128 88.9192 45.5128H90.1922C90.2495 45.5128 90.2953 45.5652 90.2953 45.6284V47.4035ZM93.9998 48.0901C93.9998 48.1452 93.9585 48.1909 93.9093 48.1909H92.7875C92.7371 48.1909 92.6958 48.1452 92.6958 48.0901V46.526C92.6958 46.4696 92.7371 46.4239 92.7875 46.4239H93.9093C93.9585 46.4239 93.9998 46.4696 93.9998 46.526V48.0901ZM97.4602 48.8708C97.4602 48.9165 97.4281 48.9528 97.3869 48.9528H96.4874C96.4462 48.9528 96.4141 48.9165 96.4141 48.8708V47.6144C96.4141 47.5701 96.4462 47.5338 96.4874 47.5338H97.3869C97.4281 47.5338 97.4602 47.5701 97.4602 47.6144V48.8708ZM101.009 49.8813C101.009 49.9136 100.985 49.9418 100.955 49.9418H100.289C100.259 49.9418 100.235 49.9136 100.235 49.8813V48.9528C100.235 48.9192 100.259 48.8923 100.289 48.8923H100.955C100.985 48.8923 101.009 48.9192 101.009 48.9528V49.8813Z" fill="black"/>
</g>
<mask id="mask5_84_4175" style="mask-type:luminance" maskUnits="userSpaceOnUse" x="6" y="62" width="98" height="16">
<path d="M6.24268 62.608H103.758V77.6083H6.24268V62.608Z" fill="white"/>
</mask>
<g mask="url(#mask5_84_4175)">
<path d="M103.552 67.7734C103.554 66.8811 103.555 65.9969 103.555 65.1262C95.1386 63.7018 76.3228 62.7101 54.4535 62.7101C33.4801 62.7101 15.3141 63.6225 6.43848 64.9528C6.43848 66.0144 6.43848 67.0975 6.43848 68.1899C16.1414 66.8999 32.4672 66.0077 51.3208 65.8626V66.439C32.4684 66.5842 16.1414 67.4764 6.43848 68.7651C6.43848 69.2743 6.43848 69.785 6.43848 70.2969C6.43848 72.3542 6.43848 74.4209 6.43848 76.4258C18.8181 77.1541 35.5999 77.6002 54.0788 77.6002C73.4777 77.6002 91.0056 77.1084 103.535 76.3156C103.54 74.3806 103.544 72.3905 103.548 70.4085C103.549 69.7191 103.55 69.0338 103.551 68.3498C93.0543 67.2211 77.0734 66.4807 59.0437 66.4229V65.8464C77.0722 65.9042 93.0543 66.6446 103.552 67.7734ZM99.7941 65.532C99.7941 65.4218 99.8823 65.3318 99.99 65.3318H100.894C101.002 65.3318 101.09 65.4218 101.09 65.532V66.7924C101.09 66.9026 101.002 66.9913 100.894 66.9913H99.99C99.8823 66.9913 99.7941 66.9026 99.7941 66.7924V65.532ZM92.816 64.8816C92.816 64.7714 92.9111 64.6814 93.0291 64.6814H94.0134C94.1302 64.6814 94.2253 64.7714 94.2253 64.8816V66.1421C94.2253 66.2523 94.1302 66.3409 94.0134 66.3409H93.0291C92.9111 66.3409 92.816 66.2523 92.816 66.1421V64.8816ZM84.7115 64.418C84.7115 64.2998 84.8123 64.2044 84.9384 64.2044H85.9902C86.1163 64.2044 86.2183 64.2998 86.2183 64.418V65.7645C86.2183 65.8814 86.1163 65.9781 85.9902 65.9781H84.9384C84.8123 65.9781 84.7115 65.8814 84.7115 65.7645V64.418ZM74.9662 63.9101C74.9662 63.7918 75.0739 63.6964 75.208 63.6964H76.3274C76.4615 63.6964 76.5704 63.7918 76.5704 63.9101V65.2565C76.5704 65.3748 76.4615 65.4702 76.3274 65.4702H75.208C75.0739 65.4702 74.9662 65.3748 74.9662 65.2565V63.9101ZM64.6777 63.6655C64.6777 63.5338 64.7946 63.4277 64.939 63.4277H66.1456C66.2899 63.4277 66.4068 63.5338 66.4068 63.6655V65.1638C66.4068 65.2942 66.2899 65.4003 66.1456 65.4003H64.939C64.7946 65.4003 64.6777 65.2942 64.6777 65.1638V63.6655ZM10.1223 66.8274C10.1223 66.9577 10.0204 67.0639 9.89546 67.0639H8.84816C8.72327 67.0639 8.62129 66.9577 8.62129 66.8274V65.3278C8.62129 65.1974 8.72327 65.0913 8.84816 65.0913H9.89546C10.0204 65.0913 10.1223 65.1974 10.1223 65.3278V66.8274ZM18.3964 66.1985C18.3964 66.3302 18.2887 66.4363 18.1558 66.4363H17.0374C16.9034 66.4363 16.7957 66.3302 16.7957 66.1985V64.7002C16.7957 64.5699 16.9034 64.4624 17.0374 64.4624H18.1558C18.2887 64.4624 18.3964 64.5699 18.3964 64.7002V66.1985ZM26.2912 65.7282C26.2912 65.8585 26.1812 65.9647 26.0471 65.9647H24.9196C24.7844 65.9647 24.6756 65.8585 24.6756 65.7282V64.2286C24.6756 64.0982 24.7844 63.9921 24.9196 63.9921H26.0471C26.1812 63.9921 26.2912 64.0982 26.2912 64.2286V65.7282ZM34.6993 65.4138C34.6993 65.5454 34.5824 65.6516 34.4381 65.6516H33.2304C33.086 65.6516 32.9691 65.5454 32.9691 65.4138V63.9155C32.9691 63.7838 33.0871 63.6776 33.2304 63.6776H34.4381C34.5824 63.6776 34.6993 63.7838 34.6993 63.9155V65.4138ZM45.5481 65.0509C45.5481 65.1826 45.4312 65.2888 45.2868 65.2888H44.0791C43.9359 65.2888 43.819 65.1826 43.819 65.0509V63.5527C43.819 63.4223 43.9359 63.3148 44.0791 63.3148H45.2868C45.4312 63.3148 45.5481 63.4223 45.5481 63.5527V65.0509ZM14.276 76.2229H13.0007V72.2884H14.276V76.2229ZM38.6914 76.7913H36.724V71.7428H38.6914V76.7913ZM96.941 72.2884H98.2163V76.2229H96.941V72.2884ZM70.9088 71.7428H72.875V76.7899H70.9088V71.7428ZM58.0732 69.1292V76.364H52.25V68.2827H52.273C52.2661 68.1832 52.2603 68.0824 52.2603 67.9803C52.2603 66.095 53.5597 64.5672 55.1616 64.5672C56.7646 64.5672 58.064 66.095 58.064 67.9803C58.064 68.0824 58.0583 68.1832 58.0502 68.2827H58.0732V69.1292Z" fill="black"/>
</g>
<mask id="mask6_84_4175" style="mask-type:luminance" maskUnits="userSpaceOnUse" x="6" y="45" width="98" height="9">
<path d="M6.24268 45.752H103.547V53.664H6.24268V45.752Z" fill="white"/>
</mask>
<g mask="url(#mask6_84_4175)">
<path d="M54.9887 45.9872C32.739 46.0248 13.8121 48.6007 6.4375 52.2074C6.4375 52.593 6.4375 53.0714 6.4375 53.6223C16.184 50.6285 34.0819 48.6222 54.5545 48.6222C54.7 48.6222 54.8444 48.6236 54.9887 48.6236C55.1343 48.6236 55.2786 48.6222 55.4242 48.6222C75.8968 48.6222 93.7935 50.6285 103.54 53.6223C103.54 53.0714 103.54 52.593 103.54 52.2074C96.1666 48.6007 77.2385 46.0248 54.9887 45.9872Z" fill="black"/>
</g>
<path d="M30.7715 82.4922H35.8636V83.6263H30.7715V82.4922ZM33.5582 87.679V88.539C33.5582 88.84 33.494 89.0658 33.3657 89.2163C33.2373 89.3641 33.0689 89.4367 32.8615 89.4367C32.6323 89.4367 32.3963 89.3265 32.1557 89.1034C31.9139 88.8777 31.7065 88.6062 31.5323 88.2864C31.3604 87.9639 31.2757 87.6548 31.2757 87.3565C31.2757 87.12 31.3364 86.9252 31.459 86.7707C31.5839 86.6175 31.8004 86.5395 32.1098 86.5395H36.0286V87.679H33.5582Z" fill="black"/>
<path d="M42.9181 82.4922V83.6263H41.4972V92.4467H40.3926V89.5818C40.1383 89.7753 39.8335 89.95 39.476 90.1032C39.1208 90.2577 38.7117 90.3343 38.2476 90.3343C37.4284 90.3343 36.7672 90.0118 36.2631 89.3668C35.7589 88.7218 35.4426 87.8658 35.3143 86.7975C35.8792 86.6578 36.2974 86.4629 36.5701 86.2117C36.8417 85.9617 36.9781 85.6016 36.9781 85.1313C36.9781 84.8343 36.9253 84.5588 36.8222 84.3035C36.7179 84.0455 36.6022 83.8198 36.4739 83.6263H34.7964V82.4922H42.9181ZM36.5564 87.6307C36.7306 88.1547 36.9574 88.5471 37.2393 88.8078C37.52 89.0658 37.8833 89.1948 38.3301 89.1948C38.785 89.1948 39.1803 89.0846 39.5172 88.8615C39.8564 88.6358 40.1474 88.3697 40.3926 88.0607V83.6263H37.6747C37.9406 84.1826 38.0735 84.7483 38.0735 85.3248C38.0735 86.475 37.567 87.2437 36.5564 87.6307Z" fill="black"/>
<path d="M45.0291 83.6263V92.4467H43.9245V83.6263H42.71V82.4922H46.4362V83.6263H45.0291Z" fill="black"/>
<path d="M54.3658 82.4922V83.6263H52.945V92.4467H51.8404V89.5818C51.586 89.7753 51.2812 89.95 50.9237 90.1032C50.5685 90.2577 50.1595 90.3343 49.6954 90.3343C48.8761 90.3343 48.215 90.0118 47.7108 89.3668C47.2066 88.7218 46.8904 87.8658 46.7621 86.7975C47.327 86.6578 47.7452 86.4629 48.0179 86.2117C48.2895 85.9617 48.4258 85.6016 48.4258 85.1313C48.4258 84.8343 48.3731 84.5588 48.27 84.3035C48.1657 84.0455 48.05 83.8198 47.9216 83.6263H46.2441V82.4922H54.3658ZM48.0041 87.6307C48.1783 88.1547 48.4052 88.5471 48.6871 88.8078C48.9678 89.0658 49.331 89.1948 49.7779 89.1948C50.2328 89.1948 50.6281 89.0846 50.965 88.8615C51.3041 88.6358 51.5952 88.3697 51.8404 88.0607V83.6263H49.1225C49.3883 84.1826 49.5212 84.7483 49.5212 85.3248C49.5212 86.475 49.0148 87.2437 48.0041 87.6307Z" fill="black"/>
<path d="M62.1699 83.6263V92.4467H61.0653V88.1897C60.8017 88.2864 60.5382 88.3509 60.2724 88.3832C60.0088 88.4154 59.7006 88.4315 59.3465 88.4315C58.9638 88.4315 58.5605 88.3926 58.1365 88.3133C57.7149 88.2313 57.3528 88.1305 57.0503 88.0123C56.8692 88.152 56.6653 88.281 56.4361 88.3993C56.8085 88.9516 57.2474 89.5213 57.7515 90.1085C58.258 90.6971 58.7897 91.2521 59.3465 91.7748L58.6086 92.6402C58.0976 92.1174 57.6163 91.5893 57.1649 91.0545C56.7157 90.5211 56.3181 90.0225 55.9732 89.5603C55.6272 89.0953 55.3545 88.6922 55.1528 88.3509C54.9534 88.0177 54.8285 87.757 54.777 87.5662C54.7277 87.3727 54.7036 87.1845 54.7036 87.0018C54.7036 86.8016 54.7701 86.6121 54.9053 86.432C55.0428 86.2493 55.2674 86.1579 55.579 86.1579C55.8048 86.1579 56.0018 86.2197 56.1703 86.3407C56.3376 86.4629 56.4911 86.6309 56.6286 86.8459C56.8211 86.6417 56.9506 86.3823 57.0182 86.0665C57.0847 85.7521 57.119 85.435 57.119 85.1152C57.119 84.7967 57.0973 84.5105 57.0549 84.2552C57.0148 83.9972 56.9643 83.7875 56.9036 83.6263H54.1582V82.4922H63.5907V83.6263H62.1699ZM59.1953 87.292C59.5493 87.292 59.8713 87.2705 60.1624 87.2275C60.4557 87.1845 60.7559 87.1147 61.0653 87.0179V83.6263H57.9945C58.0586 83.809 58.1113 84.024 58.1549 84.2713C58.2007 84.5158 58.2236 84.7967 58.2236 85.1152C58.2236 85.564 58.1801 85.9537 58.0953 86.2869C58.0093 86.6175 57.889 86.8929 57.7332 87.1147C58.2064 87.2329 58.6934 87.292 59.1953 87.292Z" fill="black"/>
<path d="M65.701 83.6263V92.4467H64.5964V83.6263H63.3818V82.4922H67.1081V83.6263H65.701Z" fill="black"/>
<path d="M74.4643 83.6263V92.4467H73.3597V89.5657C73.0939 89.7699 72.7788 89.95 72.4155 90.1032C72.0512 90.2577 71.6192 90.3343 71.1185 90.3343C70.345 90.3343 69.6885 90.0763 69.1476 89.5603C68.6068 89.0416 68.2401 88.2851 68.0476 87.292C68.9116 87.0811 69.5189 86.7854 69.8672 86.4052C70.2178 86.0262 70.3943 85.5478 70.3943 84.97C70.3943 84.4473 70.2866 84.0482 70.0735 83.7714C69.8592 83.4919 69.5842 83.3522 69.2485 83.3522C69.0216 83.3522 68.836 83.4167 68.6893 83.5457C68.5426 83.6747 68.4693 83.8614 68.4693 84.1047C68.4693 84.6502 68.8382 84.97 69.5785 85.0668L69.4685 86.1902C68.8749 86.0934 68.4063 85.8824 68.0614 85.5559C67.7153 85.2307 67.5435 84.7577 67.5435 84.1369C67.5435 83.543 67.7085 83.0928 68.0385 82.7878C68.3707 82.4841 68.7787 82.3309 69.2622 82.3309C69.6346 82.3309 69.9921 82.425 70.3347 82.6104C70.6762 82.7972 70.9557 83.0834 71.1735 83.4704C71.3935 83.8547 71.5035 84.3438 71.5035 84.9378C71.5035 85.7306 71.3201 86.3716 70.9535 86.862C70.5891 87.3538 70.0712 87.7529 69.3997 88.0607C69.6071 88.445 69.842 88.7298 70.1055 88.9153C70.3714 89.1021 70.7357 89.1948 71.201 89.1948C71.6742 89.1948 72.0787 89.09 72.4155 88.8777C72.7513 88.6627 73.0664 88.3858 73.3597 88.0445V83.6263H72.2368V82.4922H75.8714V83.6263H74.4643Z" fill="black"/>
<path d="M73.15 82.605C72.9942 82.2288 72.8773 81.8713 72.7971 81.53C72.7146 81.1901 72.6733 80.8367 72.6733 80.4712C72.6733 79.7912 72.8647 79.2268 73.2463 78.778C73.629 78.3306 74.1606 78.1062 74.8413 78.1062C75.389 78.1062 75.8427 78.2593 76.2071 78.563C76.5703 78.864 76.8831 79.3397 77.1467 79.9874C77.4125 80.6324 77.6623 81.4682 77.8983 82.4922H79.4017V83.6263H77.9946V92.4467H76.89V83.6263H75.6754V82.4922H76.8625C76.6081 81.3822 76.3423 80.5625 76.065 80.0358C75.7866 79.5063 75.3981 79.2403 74.8963 79.2403C74.533 79.2403 74.2569 79.372 74.0667 79.6327C73.8742 79.8947 73.7779 80.2548 73.7779 80.713C73.7779 81.0758 73.8238 81.4037 73.9154 81.6967C74.0071 81.9909 74.1159 82.2933 74.2408 82.605H73.15Z" fill="black"/>
</svg>
